<svg width="23" height="21" viewBox="0 0 23 21" fill="none" xmlns="http://www.w3.org/2000/svg">
<path d="M4.54928 0.640226C3.63186 0.640226 2.81714 0.987942 2.10512 1.68337C1.35201 2.41892 0.975464 3.31162 0.975464 4.36145C0.975464 5.41128 1.35201 6.30397 2.10512 7.03952L13.9151 19.2764C14.5176 19.8782 15.2125 20.2661 15.9999 20.4399C16.7872 20.6138 17.5848 20.567 18.3927 20.2995C19.2005 20.032 19.9468 19.5706 20.6314 18.9153C20.8505 18.688 21.0525 18.4372 21.2373 18.1631C21.4222 17.8889 21.5728 17.6014 21.6892 17.3005C21.8056 16.9996 21.8946 16.6819 21.9562 16.3476C22.0178 16.0132 22.0486 15.6789 22.0486 15.3446C22.0212 13.927 21.5283 12.7434 20.5698 11.7939L11.6353 2.52591C11.5121 2.39217 11.3614 2.32196 11.1834 2.31528C11.0054 2.30859 10.8514 2.36543 10.7213 2.48579C10.5912 2.60616 10.5227 2.75661 10.5159 2.93715C10.5091 3.1177 10.5672 3.27484 10.6905 3.40858L19.625 12.6765C20.3507 13.3987 20.7204 14.2947 20.7341 15.3646C20.7478 16.4345 20.3987 17.3105 19.6866 17.9925C19.2485 18.4339 18.7624 18.7682 18.2284 18.9956C17.6943 19.2229 17.1192 19.2965 16.5031 19.2162C15.8869 19.136 15.3392 18.8618 14.8599 18.3938L3.04992 6.15686C2.54329 5.66204 2.28997 5.06691 2.28997 4.37148C2.28997 3.67605 2.54329 3.08092 3.04992 2.58609C3.2827 2.35874 3.53601 2.18823 3.80987 2.07455C4.08372 1.96088 4.37127 1.91741 4.67251 1.94416C5.27499 1.97091 5.8364 2.24507 6.35672 2.76664L15.7431 12.516C15.8116 12.5829 15.8766 12.6531 15.9382 12.7267C15.9999 12.8002 16.0649 12.8872 16.1334 12.9875C16.2018 13.0878 16.2566 13.1947 16.2977 13.3084C16.3388 13.4221 16.3661 13.5358 16.3798 13.6495C16.3935 13.7631 16.373 13.8801 16.3182 14.0005C16.2634 14.1209 16.1813 14.2346 16.0717 14.3415C15.8116 14.609 15.5583 14.7294 15.3118 14.7026C15.0516 14.6759 14.7572 14.5087 14.4286 14.2011L7.36314 6.85898C7.28098 6.77874 7.18514 6.7219 7.07559 6.68846C6.96605 6.65503 6.85309 6.65169 6.7367 6.67843C6.62031 6.70518 6.52104 6.75868 6.43888 6.83892C6.30195 6.95928 6.23349 7.10639 6.23349 7.28025C6.23349 7.45411 6.29511 7.6079 6.41834 7.74164L13.4838 15.1038C14.0452 15.6388 14.6135 15.933 15.1886 15.9865C15.8458 16.04 16.4483 15.7993 16.996 15.2643C17.5163 14.7695 17.7457 14.1877 17.6841 13.5191C17.6224 12.8504 17.2904 12.2218 16.6879 11.6334L7.30152 1.86392C6.53473 1.11499 5.67893 0.713781 4.73413 0.660286C4.70674 0.660286 4.67593 0.656944 4.6417 0.650257C4.60747 0.64357 4.57666 0.640226 4.54928 0.640226Z" fill="#A7ACB0"/>
</svg>
