<svg width="59" height="83" viewBox="0 0 59 83" fill="none" xmlns="http://www.w3.org/2000/svg">
<ellipse cx="29.2341" cy="29.7683" rx="28.898" ry="28.898" fill="#E55C30"/>
<path d="M58.1321 29.7683C58.1321 33.5632 57.3846 37.321 55.9324 40.827C54.4801 44.3331 52.3515 47.5188 49.6681 50.2022C46.9847 52.8856 43.799 55.0142 40.2929 56.4665C36.7868 57.9188 33.0291 58.6662 29.2341 58.6662C25.4392 58.6662 21.6814 57.9188 18.1754 56.4665C14.6693 55.0142 11.4836 52.8856 8.8002 50.2022C6.11677 47.5188 3.98816 44.3331 2.53591 40.827C1.08365 37.321 0.336181 33.5632 0.336182 29.7683L29.2341 29.7683H58.1321Z" fill="#F96633"/>
<path d="M19.6015 29.7682H23.2138C23.8525 29.7682 24.465 30.022 24.9166 30.4736C25.3682 30.9252 25.6219 31.5377 25.6219 32.1764V38.1968C25.6219 38.8355 25.3682 39.448 24.9166 39.8996C24.465 40.3513 23.8525 40.605 23.2138 40.605H19.6015C18.9628 40.605 18.3503 40.3513 17.8987 39.8996C17.4471 39.448 17.1934 38.8355 17.1934 38.1968V29.7682C17.1934 23.1181 22.584 17.7274 29.2342 17.7274C35.8843 17.7274 41.275 23.1181 41.275 29.7682V38.1968C41.275 38.8355 41.0213 39.448 40.5697 39.8996C40.118 40.3513 39.5055 40.605 38.8668 40.605H35.2546C34.6159 40.605 34.0034 40.3513 33.5518 39.8996C33.1001 39.448 32.8464 38.8355 32.8464 38.1968V32.1764C32.8464 31.5377 33.1001 30.9252 33.5518 30.4736C34.0034 30.022 34.6159 29.7682 35.2546 29.7682H38.8668C38.8668 27.2135 37.852 24.7634 36.0455 22.9569C34.239 21.1504 31.7889 20.1356 29.2342 20.1356C26.6794 20.1356 24.2293 21.1504 22.4229 22.9569C20.6164 24.7634 19.6015 27.2135 19.6015 29.7682Z" fill="white"/>
<path d="M8.72155 78.6662H7.16514L11.6668 66.4065H13.1992L17.7009 78.6662H16.1444L12.4809 68.346H12.3851L8.72155 78.6662ZM9.29622 73.8773H15.5698V75.1942H9.29622V73.8773ZM24.8523 74.9069V69.4714H26.2651V78.6662H24.8523V77.1098H24.7565C24.541 77.5767 24.2058 77.9738 23.7508 78.3011C23.2959 78.6243 22.7212 78.786 22.0268 78.786C21.4521 78.786 20.9413 78.6602 20.4944 78.4088C20.0474 78.1534 19.6962 77.7703 19.4408 77.2595C19.1854 76.7447 19.0577 76.0962 19.0577 75.314V69.4714H20.4704V75.2182C20.4704 75.8886 20.658 76.4234 21.0331 76.8225C21.4122 77.2216 21.8951 77.4211 22.4818 77.4211C22.833 77.4211 23.1901 77.3313 23.5533 77.1517C23.9205 76.9721 24.2277 76.6968 24.4752 76.3256C24.7266 75.9545 24.8523 75.4816 24.8523 74.9069ZM31.9634 78.8578C31.1971 78.8578 30.5207 78.6642 29.934 78.2771C29.3474 77.886 28.8884 77.3353 28.5572 76.6249C28.226 75.9106 28.0604 75.0665 28.0604 74.0928C28.0604 73.127 28.226 72.2889 28.5572 71.5786C28.8884 70.8682 29.3494 70.3195 29.94 69.9324C30.5307 69.5453 31.2131 69.3517 31.9873 69.3517C32.5859 69.3517 33.0588 69.4515 33.406 69.651C33.7572 69.8466 34.0246 70.07 34.2082 70.3215C34.3958 70.5689 34.5414 70.7724 34.6452 70.9321H34.7649V66.4065H36.1776V78.6662H34.8128V77.2535H34.6452C34.5414 77.4211 34.3938 77.6326 34.2022 77.888C34.0106 78.1394 33.7373 78.3649 33.3821 78.5645C33.0269 78.76 32.554 78.8578 31.9634 78.8578ZM32.1549 77.5887C32.7216 77.5887 33.2005 77.4411 33.5916 77.1457C33.9827 76.8464 34.28 76.4334 34.4835 75.9066C34.6871 75.3758 34.7888 74.7632 34.7888 74.0688C34.7888 73.3824 34.6891 72.7818 34.4895 72.267C34.29 71.7482 33.9947 71.3451 33.6036 71.0578C33.2125 70.7664 32.7296 70.6208 32.1549 70.6208C31.5563 70.6208 31.0574 70.7744 30.6584 71.0817C30.2633 71.385 29.966 71.7981 29.7664 72.3209C29.5709 72.8397 29.4731 73.4223 29.4731 74.0688C29.4731 74.7233 29.5729 75.3179 29.7724 75.8527C29.9759 76.3835 30.2753 76.8065 30.6703 77.1218C31.0694 77.4331 31.5643 77.5887 32.1549 77.5887ZM38.6 78.6662V69.4714H40.0127V78.6662H38.6ZM39.3183 67.939C39.043 67.939 38.8055 67.8452 38.606 67.6576C38.4104 67.47 38.3127 67.2446 38.3127 66.9812C38.3127 66.7178 38.4104 66.4923 38.606 66.3047C38.8055 66.1172 39.043 66.0234 39.3183 66.0234C39.5937 66.0234 39.8292 66.1172 40.0247 66.3047C40.2243 66.4923 40.324 66.7178 40.324 66.9812C40.324 67.2446 40.2243 67.47 40.0247 67.6576C39.8292 67.8452 39.5937 67.939 39.3183 67.939ZM45.9744 78.8578C45.1444 78.8578 44.416 78.6602 43.7895 78.2652C43.1669 77.8701 42.68 77.3173 42.3288 76.607C41.9817 75.8966 41.8081 75.0665 41.8081 74.1167C41.8081 73.1589 41.9817 72.3229 42.3288 71.6085C42.68 70.8941 43.1669 70.3394 43.7895 69.9443C44.416 69.5492 45.1444 69.3517 45.9744 69.3517C46.8045 69.3517 47.5309 69.5492 48.1534 69.9443C48.78 70.3394 49.2669 70.8941 49.6141 71.6085C49.9652 72.3229 50.1408 73.1589 50.1408 74.1167C50.1408 75.0665 49.9652 75.8966 49.6141 76.607C49.2669 77.3173 48.78 77.8701 48.1534 78.2652C47.5309 78.6602 46.8045 78.8578 45.9744 78.8578ZM45.9744 77.5887C46.605 77.5887 47.1238 77.4271 47.5309 77.1038C47.9379 76.7806 48.2392 76.3556 48.4348 75.8288C48.6303 75.302 48.7281 74.7313 48.7281 74.1167C48.7281 73.5021 48.6303 72.9295 48.4348 72.3987C48.2392 71.8679 47.9379 71.4389 47.5309 71.1116C47.1238 70.7844 46.605 70.6208 45.9744 70.6208C45.3439 70.6208 44.8251 70.7844 44.418 71.1116C44.011 71.4389 43.7097 71.8679 43.5141 72.3987C43.3186 72.9295 43.2208 73.5021 43.2208 74.1167C43.2208 74.7313 43.3186 75.302 43.5141 75.8288C43.7097 76.3556 44.011 76.7806 44.418 77.1038C44.8251 77.4271 45.3439 77.5887 45.9744 77.5887Z" fill="black"/>
</svg>
