<svg width="21" height="20" viewBox="0 0 21 20" fill="none" xmlns="http://www.w3.org/2000/svg">
<path d="M6.55579 10.5915C6.55579 9.61342 6.94432 8.67542 7.63592 7.98382C8.32752 7.29222 9.26552 6.90369 10.2436 6.90369C11.2217 6.90369 12.1597 7.29222 12.8513 7.98382C13.5429 8.67542 13.9314 9.61342 13.9314 10.5915C13.9314 11.5696 13.5429 12.5076 12.8513 13.1992C12.1597 13.8908 11.2217 14.2793 10.2436 14.2793C9.26552 14.2793 8.32752 13.8908 7.63592 13.1992C6.94432 12.5076 6.55579 11.5696 6.55579 10.5915Z" fill="#A7ACB0"/>
<path d="M6.29032 1.77267C6.44385 1.46742 6.67918 1.21084 6.97004 1.03155C7.2609 0.852253 7.59586 0.757304 7.93754 0.757294H12.5645C12.9071 0.757305 13.243 0.852774 13.5343 1.03299C13.8257 1.21321 14.0612 1.47105 14.2142 1.77759L14.9333 3.21583H17.0108C17.8258 3.21583 18.6075 3.53961 19.1838 4.11594C19.7602 4.69227 20.0839 5.47395 20.0839 6.289V16.1231C20.0839 16.9382 19.7602 17.7199 19.1838 18.2962C18.6075 18.8725 17.8258 19.1963 17.0108 19.1963H3.48882C2.67376 19.1963 1.89209 18.8725 1.31576 18.2962C0.739429 17.7199 0.415649 16.9382 0.415649 16.1231V6.289C0.415649 5.47395 0.739429 4.69227 1.31576 4.11594C1.89209 3.53961 2.67376 3.21583 3.48882 3.21583H5.56628L6.29032 1.77267ZM10.2436 5.67437C8.93956 5.67437 7.68888 6.19241 6.76675 7.11454C5.84462 8.03667 5.32658 9.28735 5.32658 10.5914C5.32658 11.8955 5.84462 13.1462 6.76675 14.0683C7.68888 14.9905 8.93956 15.5085 10.2436 15.5085C11.5477 15.5085 12.7984 14.9905 13.7205 14.0683C14.6427 13.1462 15.1607 11.8955 15.1607 10.5914C15.1607 9.28735 14.6427 8.03667 13.7205 7.11454C12.7984 6.19241 11.5477 5.67437 10.2436 5.67437Z" fill="#A7ACB0"/>
</svg>
