<svg width="62" height="83" viewBox="0 0 62 83" fill="none" xmlns="http://www.w3.org/2000/svg">
<ellipse cx="29.173" cy="29.8091" rx="28.898" ry="28.898" fill="#E82B6D"/>
<path d="M58.0709 29.8091C58.0709 33.6041 57.3235 37.3618 55.8712 40.8679C54.419 44.374 52.2903 47.5596 49.6069 50.2431C46.9235 52.9265 43.7378 55.0551 40.2318 56.5074C36.7257 57.9596 32.9679 58.7071 29.173 58.7071C25.378 58.7071 21.6203 57.9596 18.1142 56.5074C14.6081 55.0551 11.4225 52.9265 8.73904 50.2431C6.05562 47.5596 3.92701 44.374 2.47475 40.8679C1.02249 37.3618 0.275024 33.6041 0.275024 29.8091L29.173 29.8091H58.0709Z" fill="#FD2F74"/>
<circle cx="29.1729" cy="31.0132" r="4.81633" fill="#FEFEFF"/>
<path d="M38.8055 22.5846H35.6918L32.4323 19.3252C32.3207 19.2131 32.188 19.1243 32.0419 19.0638C31.8958 19.0032 31.7392 18.9722 31.5811 18.9724H26.7647C26.6066 18.9722 26.45 19.0032 26.3039 19.0638C26.1578 19.1243 26.0251 19.2131 25.9134 19.3252L22.654 22.5846H19.5402C18.2121 22.5846 17.1321 23.6647 17.1321 24.9928V38.2377C17.1321 39.5658 18.2121 40.6459 19.5402 40.6459H38.8055C40.1336 40.6459 41.2137 39.5658 41.2137 38.2377V24.9928C41.2137 23.6647 40.1336 22.5846 38.8055 22.5846ZM29.1729 37.0336C25.9098 37.0336 23.1525 34.2763 23.1525 31.0132C23.1525 27.7501 25.9098 24.9928 29.1729 24.9928C32.436 24.9928 35.1933 27.7501 35.1933 31.0132C35.1933 34.2763 32.436 37.0336 29.1729 37.0336Z" fill="#FEFEFF"/>
<path d="M11.6249 70.2785H10.1403C10.0525 69.8515 9.89884 69.4764 9.67935 69.1531C9.46384 68.8298 9.20045 68.5585 8.88917 68.339C8.58188 68.1155 8.24066 67.9479 7.86553 67.8361C7.49039 67.7244 7.09929 67.6685 6.69223 67.6685C5.94994 67.6685 5.27749 67.8561 4.67488 68.2312C4.07626 68.6064 3.59936 69.1591 3.24418 69.8894C2.89299 70.6197 2.71739 71.5157 2.71739 72.5772C2.71739 73.6388 2.89299 74.5347 3.24418 75.265C3.59936 75.9953 4.07626 76.5481 4.67488 76.9232C5.27749 77.2983 5.94994 77.4859 6.69223 77.4859C7.09929 77.4859 7.49039 77.43 7.86553 77.3183C8.24066 77.2065 8.58188 77.0409 8.88917 76.8214C9.20045 76.5979 9.46384 76.3246 9.67935 76.0013C9.89884 75.6741 10.0525 75.2989 10.1403 74.8759H11.6249C11.5131 75.5025 11.3096 76.0632 11.0143 76.558C10.7189 77.0529 10.3518 77.4739 9.91281 77.8211C9.47382 78.1643 8.98096 78.4257 8.43422 78.6053C7.89147 78.7849 7.31081 78.8747 6.69223 78.8747C5.64664 78.8747 4.71679 78.6193 3.90266 78.1085C3.08854 77.5976 2.44802 76.8713 1.98109 75.9295C1.51417 74.9877 1.28071 73.8702 1.28071 72.5772C1.28071 71.2842 1.51417 70.1668 1.98109 69.2249C2.44802 68.2831 3.08854 67.5568 3.90266 67.046C4.71679 66.5351 5.64664 66.2797 6.69223 66.2797C7.31081 66.2797 7.89147 66.3695 8.43422 66.5491C8.98096 66.7287 9.47382 66.9921 9.91281 67.3393C10.3518 67.6825 10.7189 68.1015 11.0143 68.5964C11.3096 69.0873 11.5131 69.648 11.6249 70.2785ZM16.1768 78.9226C15.5942 78.9226 15.0654 78.8128 14.5905 78.5933C14.1156 78.3699 13.7384 78.0486 13.4591 77.6296C13.1797 77.2065 13.04 76.6957 13.04 76.0971C13.04 75.5703 13.1438 75.1433 13.3513 74.816C13.5588 74.4848 13.8362 74.2254 14.1834 74.0378C14.5306 73.8503 14.9137 73.7106 15.3328 73.6188C15.7558 73.523 16.1808 73.4472 16.6078 73.3913C17.1665 73.3195 17.6195 73.2656 17.9667 73.2297C18.3179 73.1898 18.5733 73.1239 18.7329 73.0322C18.8965 72.9404 18.9784 72.7807 18.9784 72.5533V72.5054C18.9784 71.9147 18.8167 71.4558 18.4935 71.1285C18.1742 70.8013 17.6893 70.6377 17.0388 70.6377C16.3644 70.6377 15.8356 70.7853 15.4525 71.0807C15.0694 71.376 14.8 71.6912 14.6443 72.0265L13.3034 71.5476C13.5429 70.9889 13.8621 70.5539 14.2612 70.2426C14.6643 69.9273 15.1033 69.7078 15.5782 69.5841C16.0571 69.4564 16.528 69.3925 16.9909 69.3925C17.2863 69.3925 17.6255 69.4285 18.0086 69.5003C18.3957 69.5681 18.7688 69.7098 19.128 69.9253C19.4912 70.1408 19.7925 70.4661 20.0319 70.9011C20.2714 71.3361 20.3911 71.9187 20.3911 72.649V78.7071H18.9784V77.4619H18.9065C18.8107 77.6615 18.6511 77.875 18.4276 78.1025C18.2041 78.3299 17.9068 78.5235 17.5357 78.6831C17.1645 78.8428 16.7116 78.9226 16.1768 78.9226ZM16.3923 77.6535C16.951 77.6535 17.4219 77.5438 17.8051 77.3243C18.1922 77.1048 18.4835 76.8214 18.679 76.4742C18.8786 76.127 18.9784 75.7619 18.9784 75.3787V74.0857C18.9185 74.1576 18.7868 74.2234 18.5833 74.2833C18.3837 74.3391 18.1523 74.389 17.8889 74.4329C17.6295 74.4728 17.376 74.5088 17.1286 74.5407C16.8852 74.5686 16.6876 74.5926 16.536 74.6125C16.1688 74.6604 15.8256 74.7382 15.5064 74.846C15.1911 74.9497 14.9357 75.1074 14.7401 75.3189C14.5486 75.5264 14.4528 75.8098 14.4528 76.1689C14.4528 76.6598 14.6344 77.0309 14.9975 77.2824C15.3647 77.5298 15.8296 77.6535 16.3923 77.6535ZM22.6084 78.7071V69.5123H23.9733V70.949H24.093C24.2846 70.4581 24.5939 70.077 25.0209 69.8056C25.4479 69.5302 25.9607 69.3925 26.5593 69.3925C27.1659 69.3925 27.6708 69.5302 28.0738 69.8056C28.4809 70.077 28.7982 70.4581 29.0256 70.949H29.1214C29.3569 70.4741 29.7101 70.0969 30.181 69.8176C30.6519 69.5342 31.2166 69.3925 31.8751 69.3925C32.6972 69.3925 33.3696 69.65 33.8924 70.1648C34.4152 70.6756 34.6766 71.4718 34.6766 72.5533V78.7071H33.2639V72.5533C33.2639 71.8748 33.0783 71.3899 32.7071 71.0986C32.336 70.8073 31.899 70.6616 31.3962 70.6616C30.7497 70.6616 30.2488 70.8572 29.8936 71.2483C29.5385 71.6354 29.3609 72.1262 29.3609 72.7209V78.7071H27.9242V72.4096C27.9242 71.8868 27.7546 71.4658 27.4153 71.1465C27.0761 70.8233 26.6391 70.6616 26.1044 70.6616C25.7372 70.6616 25.394 70.7594 25.0747 70.9549C24.7595 71.1505 24.5041 71.4219 24.3085 71.7691C24.117 72.1123 24.0212 72.5094 24.0212 72.9603V78.7071H22.6084ZM40.7535 78.8986C39.8676 78.8986 39.1033 78.7031 38.4608 78.312C37.8223 77.9169 37.3294 77.3662 36.9822 76.6598C36.639 75.9494 36.4674 75.1233 36.4674 74.1815C36.4674 73.2397 36.639 72.4096 36.9822 71.6912C37.3294 70.9689 37.8123 70.4062 38.4309 70.0031C39.0535 69.5961 39.7798 69.3925 40.6099 69.3925C41.0888 69.3925 41.5617 69.4724 42.0286 69.632C42.4955 69.7916 42.9205 70.051 43.3037 70.4102C43.6868 70.7654 43.9921 71.2363 44.2196 71.8229C44.447 72.4096 44.5608 73.1319 44.5608 73.99V74.5886H37.4731V73.3674H43.1241C43.1241 72.8486 43.0203 72.3856 42.8128 71.9786C42.6093 71.5715 42.3179 71.2503 41.9388 71.0148C41.5637 70.7794 41.1207 70.6616 40.6099 70.6616C40.0472 70.6616 39.5603 70.8013 39.1492 71.0807C38.7422 71.356 38.4289 71.7152 38.2094 72.1582C37.9899 72.6012 37.8802 73.0761 37.8802 73.5829V74.397C37.8802 75.0914 37.9999 75.6801 38.2393 76.1629C38.4828 76.6418 38.82 77.007 39.251 77.2584C39.682 77.5058 40.1829 77.6296 40.7535 77.6296C41.1247 77.6296 41.4599 77.5777 41.7592 77.4739C42.0625 77.3662 42.3239 77.2065 42.5434 76.995C42.7629 76.7795 42.9325 76.5121 43.0522 76.1929L44.4171 76.576C44.2734 77.0389 44.032 77.446 43.6928 77.7972C43.3535 78.1444 42.9345 78.4157 42.4357 78.6113C41.9368 78.8029 41.3761 78.8986 40.7535 78.8986ZM46.3486 78.7071V69.5123H47.7134V70.9011H47.8092C47.9768 70.4461 48.2801 70.077 48.7191 69.7936C49.1581 69.5103 49.653 69.3686 50.2037 69.3686C50.3075 69.3686 50.4372 69.3706 50.5928 69.3746C50.7484 69.3786 50.8662 69.3846 50.946 69.3925V70.8292C50.8981 70.8173 50.7884 70.7993 50.6167 70.7754C50.4491 70.7474 50.2715 70.7335 50.084 70.7335C49.637 70.7335 49.2379 70.8272 48.8867 71.0148C48.5395 71.1984 48.2642 71.4538 48.0606 71.781C47.8611 72.1043 47.7613 72.4734 47.7613 72.8885V78.7071H46.3486ZM54.9652 78.9226C54.3825 78.9226 53.8537 78.8128 53.3788 78.5933C52.9039 78.3699 52.5268 78.0486 52.2474 77.6296C51.9681 77.2065 51.8284 76.6957 51.8284 76.0971C51.8284 75.5703 51.9322 75.1433 52.1397 74.816C52.3472 74.4848 52.6246 74.2254 52.9718 74.0378C53.319 73.8503 53.7021 73.7106 54.1211 73.6188C54.5441 73.523 54.9692 73.4472 55.3962 73.3913C55.9549 73.3195 56.4078 73.2656 56.755 73.2297C57.1062 73.1898 57.3616 73.1239 57.5213 73.0322C57.6849 72.9404 57.7667 72.7807 57.7667 72.5533V72.5054C57.7667 71.9147 57.6051 71.4558 57.2818 71.1285C56.9626 70.8013 56.4777 70.6377 55.8272 70.6377C55.1527 70.6377 54.624 70.7853 54.2408 71.0807C53.8577 71.376 53.5883 71.6912 53.4327 72.0265L52.0918 71.5476C52.3312 70.9889 52.6505 70.5539 53.0496 70.2426C53.4527 69.9273 53.8916 69.7078 54.3665 69.5841C54.8454 69.4564 55.3164 69.3925 55.7793 69.3925C56.0746 69.3925 56.4138 69.4285 56.7969 69.5003C57.1841 69.5681 57.5572 69.7098 57.9164 69.9253C58.2795 70.1408 58.5808 70.4661 58.8203 70.9011C59.0597 71.3361 59.1795 71.9187 59.1795 72.649V78.7071H57.7667V77.4619H57.6949C57.5991 77.6615 57.4395 77.875 57.216 78.1025C56.9925 78.3299 56.6952 78.5235 56.324 78.6831C55.9529 78.8428 55.4999 78.9226 54.9652 78.9226ZM55.1807 77.6535C55.7394 77.6535 56.2103 77.5438 56.5934 77.3243C56.9805 77.1048 57.2718 76.8214 57.4674 76.4742C57.6669 76.127 57.7667 75.7619 57.7667 75.3787V74.0857C57.7068 74.1576 57.5752 74.2234 57.3716 74.2833C57.1721 74.3391 56.9406 74.389 56.6772 74.4329C56.4178 74.4728 56.1644 74.5088 55.917 74.5407C55.6735 74.5686 55.476 74.5926 55.3243 74.6125C54.9572 74.6604 54.614 74.7382 54.2947 74.846C53.9794 74.9497 53.724 75.1074 53.5285 75.3189C53.3369 75.5264 53.2411 75.8098 53.2411 76.1689C53.2411 76.6598 53.4227 77.0309 53.7859 77.2824C54.153 77.5298 54.618 77.6535 55.1807 77.6535Z" fill="black"/>
</svg>
