<svg width="63" height="83" viewBox="0 0 63 83" fill="none" xmlns="http://www.w3.org/2000/svg">
<ellipse cx="29.2341" cy="29.7275" rx="28.898" ry="28.898" fill="#0191D0"/>
<path d="M58.1321 29.7275C58.1321 33.5224 57.3846 37.2802 55.9324 40.7863C54.4801 44.2923 52.3515 47.478 49.6681 50.1614C46.9847 52.8449 43.799 54.9735 40.2929 56.4257C36.7868 57.878 33.0291 58.6254 29.2341 58.6254C25.4392 58.6254 21.6814 57.878 18.1754 56.4257C14.6693 54.9735 11.4836 52.8449 8.8002 50.1614C6.11677 47.478 3.98816 44.2923 2.53591 40.7863C1.08365 37.2802 0.336181 33.5224 0.336182 29.7275L29.2341 29.7275H58.1321Z" fill="#009BDE"/>
<path d="M20.2036 40.5642C20.2036 40.5642 18.3975 40.5642 18.3975 38.7581C18.3975 36.952 20.2036 31.5336 29.2342 31.5336C38.2648 31.5336 40.0709 36.952 40.0709 38.7581C40.0709 40.5642 38.2648 40.5642 38.2648 40.5642H20.2036ZM29.2342 29.7275C30.6712 29.7275 32.0494 29.1566 33.0656 28.1405C34.0817 27.1243 34.6526 25.7462 34.6526 24.3091C34.6526 22.8721 34.0817 21.4939 33.0656 20.4778C32.0494 19.4616 30.6712 18.8907 29.2342 18.8907C27.7972 18.8907 26.419 19.4616 25.4028 20.4778C24.3867 21.4939 23.8158 22.8721 23.8158 24.3091C23.8158 25.7462 24.3867 27.1243 25.4028 28.1405C26.419 29.1566 27.7972 29.7275 29.2342 29.7275Z" fill="#FFFDFE"/>
<path d="M11.686 70.1969H10.2014C10.1136 69.7699 9.96 69.3947 9.7405 69.0715C9.525 68.7482 9.26161 68.4769 8.95033 68.2574C8.64303 68.0339 8.30182 67.8663 7.92668 67.7545C7.55155 67.6428 7.16045 67.5869 6.75339 67.5869C6.0111 67.5869 5.33865 67.7745 4.73604 68.1496C4.13742 68.5247 3.66052 69.0775 3.30534 69.8078C2.95415 70.5381 2.77855 71.434 2.77855 72.4956C2.77855 73.5571 2.95415 74.4531 3.30534 75.1834C3.66052 75.9137 4.13742 76.4664 4.73604 76.8416C5.33865 77.2167 6.0111 77.4043 6.75339 77.4043C7.16045 77.4043 7.55155 77.3484 7.92668 77.2367C8.30182 77.1249 8.64303 76.9593 8.95033 76.7398C9.26161 76.5163 9.525 76.2429 9.7405 75.9197C9.96 75.5924 10.1136 75.2173 10.2014 74.7943H11.686C11.5743 75.4208 11.3707 75.9816 11.0754 76.4764C10.7801 76.9713 10.413 77.3923 9.97397 77.7395C9.53498 78.0827 9.04211 78.3441 8.49537 78.5237C7.95262 78.7033 7.37196 78.7931 6.75339 78.7931C5.7078 78.7931 4.77794 78.5377 3.96382 78.0268C3.1497 77.516 2.50917 76.7897 2.04225 75.8479C1.57533 74.906 1.34186 73.7886 1.34186 72.4956C1.34186 71.2026 1.57533 70.0851 2.04225 69.1433C2.50917 68.2015 3.1497 67.4752 3.96382 66.9643C4.77794 66.4535 5.7078 66.1981 6.75339 66.1981C7.37196 66.1981 7.95262 66.2879 8.49537 66.4675C9.04211 66.6471 9.53498 66.9105 9.97397 67.2577C10.413 67.6009 10.7801 68.0199 11.0754 68.5148C11.3707 69.0056 11.5743 69.5663 11.686 70.1969ZM17.2676 78.817C16.4375 78.817 15.7092 78.6195 15.0826 78.2244C14.4601 77.8293 13.9732 77.2766 13.622 76.5662C13.2748 75.8558 13.1012 75.0258 13.1012 74.0759C13.1012 73.1182 13.2748 72.2821 13.622 71.5677C13.9732 70.8534 14.4601 70.2987 15.0826 69.9036C15.7092 69.5085 16.4375 69.3109 17.2676 69.3109C18.0977 69.3109 18.824 69.5085 19.4466 69.9036C20.0731 70.2987 20.56 70.8534 20.9072 71.5677C21.2584 72.2821 21.434 73.1182 21.434 74.0759C21.434 75.0258 21.2584 75.8558 20.9072 76.5662C20.56 77.2766 20.0731 77.8293 19.4466 78.2244C18.824 78.6195 18.0977 78.817 17.2676 78.817ZM17.2676 77.5479C17.8981 77.5479 18.4169 77.3863 18.824 77.0631C19.2311 76.7398 19.5324 76.3148 19.7279 75.788C19.9235 75.2612 20.0212 74.6905 20.0212 74.0759C20.0212 73.4614 19.9235 72.8887 19.7279 72.3579C19.5324 71.8271 19.2311 71.3981 18.824 71.0709C18.4169 70.7436 17.8981 70.58 17.2676 70.58C16.637 70.58 16.1182 70.7436 15.7112 71.0709C15.3041 71.3981 15.0028 71.8271 14.8073 72.3579C14.6117 72.8887 14.5139 73.4614 14.5139 74.0759C14.5139 74.6905 14.6117 75.2612 14.8073 75.788C15.0028 76.3148 15.3041 76.7398 15.7112 77.0631C16.1182 77.3863 16.637 77.5479 17.2676 77.5479ZM24.642 73.0942V78.6255H23.2293V69.4307H24.5941V70.8673H24.7139C24.9294 70.4004 25.2566 70.0253 25.6956 69.7419C26.1346 69.4546 26.7013 69.3109 27.3957 69.3109C28.0183 69.3109 28.563 69.4386 29.0299 69.694C29.4968 69.9455 29.86 70.3286 30.1194 70.8434C30.3788 71.3542 30.5085 72.0007 30.5085 72.7829V78.6255H29.0958V72.8787C29.0958 72.1564 28.9082 71.5937 28.5331 71.1906C28.1579 70.7835 27.6431 70.58 26.9886 70.58C26.5377 70.58 26.1346 70.6778 25.7794 70.8733C25.4282 71.0689 25.1509 71.3542 24.9473 71.7294C24.7438 72.1045 24.642 72.5594 24.642 73.0942ZM36.7276 69.4307V70.6279H31.9626V69.4307H36.7276ZM33.3514 67.2277H34.7641V75.9915C34.7641 76.3906 34.822 76.6899 34.9377 76.8895C35.0575 77.085 35.2091 77.2167 35.3927 77.2845C35.5803 77.3484 35.7778 77.3803 35.9853 77.3803C36.141 77.3803 36.2687 77.3723 36.3684 77.3564C36.4682 77.3364 36.548 77.3205 36.6079 77.3085L36.8952 78.5776C36.7995 78.6135 36.6658 78.6494 36.4942 78.6853C36.3226 78.7252 36.1051 78.7452 35.8417 78.7452C35.4426 78.7452 35.0515 78.6594 34.6684 78.4878C34.2892 78.3162 33.974 78.0548 33.7225 77.7036C33.4751 77.3524 33.3514 76.9094 33.3514 76.3746V67.2277ZM41.1973 78.841C40.6146 78.841 40.0858 78.7312 39.6109 78.5117C39.136 78.2882 38.7589 77.967 38.4795 77.5479C38.2002 77.1249 38.0605 76.6141 38.0605 76.0155C38.0605 75.4887 38.1643 75.0617 38.3718 74.7344C38.5793 74.4032 38.8567 74.1438 39.2039 73.9562C39.5511 73.7687 39.9342 73.629 40.3532 73.5372C40.7762 73.4414 41.2013 73.3656 41.6283 73.3097C42.187 73.2379 42.6399 73.184 42.9871 73.1481C43.3383 73.1082 43.5937 73.0423 43.7534 72.9505C43.917 72.8588 43.9988 72.6991 43.9988 72.4716V72.4238C43.9988 71.8331 43.8372 71.3742 43.5139 71.0469C43.1947 70.7197 42.7098 70.5561 42.0593 70.5561C41.3848 70.5561 40.856 70.7037 40.4729 70.999C40.0898 71.2944 39.8204 71.6096 39.6648 71.9449L38.3239 71.466C38.5633 70.9072 38.8826 70.4723 39.2817 70.161C39.6847 69.8457 40.1237 69.6262 40.5986 69.5025C41.0775 69.3748 41.5485 69.3109 42.0114 69.3109C42.3067 69.3109 42.6459 69.3468 43.029 69.4187C43.4161 69.4865 43.7893 69.6282 44.1485 69.8437C44.5116 70.0592 44.8129 70.3845 45.0524 70.8195C45.2918 71.2544 45.4115 71.8371 45.4115 72.5674V78.6255H43.9988V77.3803H43.927C43.8312 77.5799 43.6716 77.7934 43.4481 78.0209C43.2246 78.2483 42.9273 78.4419 42.5561 78.6015C42.185 78.7611 41.732 78.841 41.1973 78.841ZM41.4128 77.5719C41.9715 77.5719 42.4424 77.4621 42.8255 77.2426C43.2126 77.0232 43.5039 76.7398 43.6995 76.3926C43.899 76.0454 43.9988 75.6802 43.9988 75.2971V74.0041C43.9389 74.0759 43.8072 74.1418 43.6037 74.2017C43.4042 74.2575 43.1727 74.3074 42.9093 74.3513C42.6499 74.3912 42.3965 74.4271 42.1491 74.4591C41.9056 74.487 41.7081 74.5109 41.5564 74.5309C41.1893 74.5788 40.8461 74.6566 40.5268 74.7644C40.2115 74.8681 39.9561 75.0258 39.7606 75.2373C39.569 75.4448 39.4732 75.7281 39.4732 76.0873C39.4732 76.5782 39.6548 76.9493 40.018 77.2007C40.3851 77.4482 40.8501 77.5719 41.4128 77.5719ZM51.3643 78.817C50.5023 78.817 49.76 78.6135 49.1374 78.2064C48.5148 77.7994 48.0359 77.2387 47.7007 76.5243C47.3655 75.8099 47.1979 74.9938 47.1979 74.0759C47.1979 73.1421 47.3695 72.318 47.7127 71.6036C48.0599 70.8853 48.5428 70.3246 49.1613 69.9215C49.7839 69.5145 50.5102 69.3109 51.3403 69.3109C51.9868 69.3109 52.5695 69.4307 53.0883 69.6701C53.6071 69.9095 54.0321 70.2448 54.3634 70.6758C54.6946 71.1068 54.9001 71.6096 54.9799 72.1843H53.5672C53.4594 71.7653 53.22 71.3941 52.8488 71.0709C52.4817 70.7436 51.9868 70.58 51.3643 70.58C50.8135 70.58 50.3306 70.7237 49.9156 71.011C49.5046 71.2944 49.1833 71.6954 48.9518 72.2142C48.7244 72.729 48.6106 73.3337 48.6106 74.0281C48.6106 74.7384 48.7224 75.357 48.9458 75.8838C49.1733 76.4106 49.4926 76.8196 49.9036 77.1109C50.3187 77.4023 50.8056 77.5479 51.3643 77.5479C51.7314 77.5479 52.0647 77.4841 52.364 77.3564C52.6633 77.2287 52.9167 77.0451 53.1242 76.8057C53.3317 76.5662 53.4794 76.2789 53.5672 75.9436H54.9799C54.9001 76.4864 54.7026 76.9753 54.3873 77.4103C54.076 77.8413 53.663 78.1845 53.1482 78.4399C52.6373 78.6913 52.0427 78.817 51.3643 78.817ZM60.6827 69.4307V70.6279H55.9177V69.4307H60.6827ZM57.3065 67.2277H58.7193V75.9915C58.7193 76.3906 58.7771 76.6899 58.8929 76.8895C59.0126 77.085 59.1642 77.2167 59.3478 77.2845C59.5354 77.3484 59.7329 77.3803 59.9404 77.3803C60.0961 77.3803 60.2238 77.3723 60.3236 77.3564C60.4233 77.3364 60.5031 77.3205 60.563 77.3085L60.8503 78.5776C60.7546 78.6135 60.6209 78.6494 60.4493 78.6853C60.2777 78.7252 60.0602 78.7452 59.7968 78.7452C59.3977 78.7452 59.0066 78.6594 58.6235 78.4878C58.2443 78.3162 57.9291 78.0548 57.6777 77.7036C57.4302 77.3524 57.3065 76.9094 57.3065 76.3746V67.2277Z" fill="black"/>
</svg>
