<svg width="81" height="83" viewBox="0 0 81 83" fill="none" xmlns="http://www.w3.org/2000/svg">
<ellipse cx="40.7036" cy="29.8091" rx="28.898" ry="28.898" fill="#745DEB"/>
<path d="M69.6016 29.8091C69.6016 33.6041 68.8541 37.3618 67.4019 40.8679C65.9496 44.374 63.821 47.5596 61.1376 50.2431C58.4541 52.9265 55.2685 55.0551 51.7624 56.5074C48.2563 57.9596 44.4986 58.7071 40.7036 58.7071C36.9087 58.7071 33.1509 57.9596 29.6448 56.5074C26.1388 55.0551 22.9531 52.9265 20.2697 50.2431C17.5863 47.5596 15.4576 44.374 14.0054 40.8679C12.5531 37.3618 11.8057 33.6041 11.8057 29.8091L40.7036 29.8091H69.6016Z" fill="#7F66FF"/>
<path d="M43.0289 18.9724H32.4483C32.0757 18.9825 31.722 19.1435 31.4641 19.4203C31.2063 19.6972 31.065 20.0675 31.0711 20.4508V39.1674C31.065 39.5507 31.2063 39.9211 31.4641 40.1979C31.722 40.4747 32.0757 40.6357 32.4483 40.6459H47.7548C48.1274 40.6357 48.4811 40.4747 48.7389 40.1979C48.9968 39.9211 49.138 39.5507 49.132 39.1674V25.1029L43.0289 18.9724ZM42.3591 25.9389V20.3966L47.8526 25.9389H42.3591Z" fill="#FEFEFF"/>
<path d="M5.97147 78.7071H2.18819V66.4473H6.13908C7.32834 66.4473 8.346 66.6928 9.19205 67.1836C10.0381 67.6705 10.6866 68.3709 11.1376 69.2848C11.5885 70.1947 11.814 71.2842 11.814 72.5533C11.814 73.8303 11.5865 74.9298 11.1316 75.8517C10.6766 76.7695 10.0142 77.4759 9.14416 77.9708C8.27416 78.4616 7.2166 78.7071 5.97147 78.7071ZM3.67277 77.3901H5.87569C6.88935 77.3901 7.72942 77.1946 8.39588 76.8035C9.06235 76.4124 9.5592 75.8556 9.88645 75.1333C10.2137 74.411 10.3773 73.551 10.3773 72.5533C10.3773 71.5635 10.2157 70.7115 9.89243 69.9972C9.56918 69.2788 9.08629 68.7281 8.44377 68.345C7.80125 67.9579 7.0011 67.7643 6.0433 67.7643H3.67277V77.3901ZM17.4869 78.8986C16.6568 78.8986 15.9285 78.7011 15.3019 78.306C14.6793 77.9109 14.1925 77.3582 13.8413 76.6478C13.4941 75.9375 13.3205 75.1074 13.3205 74.1576C13.3205 73.1998 13.4941 72.3637 13.8413 71.6493C14.1925 70.935 14.6793 70.3803 15.3019 69.9852C15.9285 69.5901 16.6568 69.3925 17.4869 69.3925C18.317 69.3925 19.0433 69.5901 19.6658 69.9852C20.2924 70.3803 20.7793 70.935 21.1265 71.6493C21.4777 72.3637 21.6533 73.1998 21.6533 74.1576C21.6533 75.1074 21.4777 75.9375 21.1265 76.6478C20.7793 77.3582 20.2924 77.9109 19.6658 78.306C19.0433 78.7011 18.317 78.8986 17.4869 78.8986ZM17.4869 77.6296C18.1174 77.6296 18.6362 77.4679 19.0433 77.1447C19.4503 76.8214 19.7516 76.3964 19.9472 75.8696C20.1427 75.3428 20.2405 74.7721 20.2405 74.1576C20.2405 73.543 20.1427 72.9703 19.9472 72.4395C19.7516 71.9087 19.4503 71.4797 19.0433 71.1525C18.6362 70.8252 18.1174 70.6616 17.4869 70.6616C16.8563 70.6616 16.3375 70.8252 15.9305 71.1525C15.5234 71.4797 15.2221 71.9087 15.0265 72.4395C14.831 72.9703 14.7332 73.543 14.7332 74.1576C14.7332 74.7721 14.831 75.3428 15.0265 75.8696C15.2221 76.3964 15.5234 76.8214 15.9305 77.1447C16.3375 77.4679 16.8563 77.6296 17.4869 77.6296ZM27.184 78.8986C26.3219 78.8986 25.5797 78.6951 24.9571 78.288C24.3345 77.881 23.8556 77.3203 23.5204 76.6059C23.1852 75.8916 23.0176 75.0754 23.0176 74.1576C23.0176 73.2237 23.1892 72.3996 23.5324 71.6853C23.8796 70.9669 24.3625 70.4062 24.981 70.0031C25.6036 69.5961 26.3299 69.3925 27.16 69.3925C27.8065 69.3925 28.3892 69.5123 28.908 69.7517C29.4268 69.9912 29.8518 70.3264 30.183 70.7574C30.5143 71.1884 30.7198 71.6912 30.7996 72.2659H29.3869C29.2791 71.8469 29.0397 71.4757 28.6685 71.1525C28.3014 70.8252 27.8065 70.6616 27.184 70.6616C26.6332 70.6616 26.1503 70.8053 25.7353 71.0926C25.3242 71.376 25.003 71.7771 24.7715 72.2959C24.544 72.8107 24.4303 73.4153 24.4303 74.1097C24.4303 74.82 24.542 75.4386 24.7655 75.9654C24.993 76.4922 25.3123 76.9012 25.7233 77.1926C26.1384 77.4839 26.6252 77.6296 27.184 77.6296C27.5511 77.6296 27.8843 77.5657 28.1837 77.438C28.483 77.3103 28.7364 77.1267 28.9439 76.8873C29.1514 76.6478 29.2991 76.3605 29.3869 76.0253H30.7996C30.7198 76.568 30.5223 77.0569 30.207 77.4919C29.8957 77.9229 29.4827 78.2661 28.9678 78.5215C28.457 78.7729 27.8624 78.8986 27.184 78.8986ZM38.2983 74.9477V69.5123H39.711V78.7071H38.2983V77.1507H38.2025C37.987 77.6176 37.6518 78.0147 37.1968 78.3419C36.7419 78.6652 36.1672 78.8268 35.4728 78.8268C34.8981 78.8268 34.3873 78.7011 33.9403 78.4497C33.4934 78.1943 33.1422 77.8111 32.8868 77.3003C32.6313 76.7855 32.5036 76.137 32.5036 75.3548V69.5123H33.9164V75.259C33.9164 75.9295 34.1039 76.4642 34.4791 76.8633C34.8582 77.2624 35.3411 77.4619 35.9277 77.4619C36.2789 77.4619 36.6361 77.3722 36.9993 77.1926C37.3664 77.013 37.6737 76.7376 37.9212 76.3665C38.1726 75.9953 38.2983 75.5224 38.2983 74.9477ZM41.9373 78.7071V69.5123H43.3022V70.949H43.4219C43.6135 70.4581 43.9228 70.077 44.3498 69.8056C44.7768 69.5302 45.2896 69.3925 45.8882 69.3925C46.4948 69.3925 46.9997 69.5302 47.4027 69.8056C47.8098 70.077 48.1271 70.4581 48.3545 70.949H48.4503C48.6858 70.4741 49.039 70.0969 49.5099 69.8176C49.9808 69.5342 50.5455 69.3925 51.204 69.3925C52.0261 69.3925 52.6985 69.65 53.2213 70.1648C53.7441 70.6756 54.0055 71.4718 54.0055 72.5533V78.7071H52.5928V72.5533C52.5928 71.8748 52.4072 71.3899 52.0361 71.0986C51.6649 70.8073 51.2279 70.6616 50.7251 70.6616C50.0786 70.6616 49.5777 70.8572 49.2225 71.2483C48.8674 71.6354 48.6898 72.1262 48.6898 72.7209V78.7071H47.2531V72.4096C47.2531 71.8868 47.0835 71.4658 46.7443 71.1465C46.405 70.8233 45.968 70.6616 45.4333 70.6616C45.0661 70.6616 44.7229 70.7594 44.4036 70.9549C44.0884 71.1505 43.833 71.4219 43.6374 71.7691C43.4459 72.1123 43.3501 72.5094 43.3501 72.9603V78.7071H41.9373ZM60.0825 78.8986C59.1965 78.8986 58.4323 78.7031 57.7897 78.312C57.1512 77.9169 56.6583 77.3662 56.3111 76.6598C55.9679 75.9494 55.7963 75.1233 55.7963 74.1815C55.7963 73.2397 55.9679 72.4096 56.3111 71.6912C56.6583 70.9689 57.1412 70.4062 57.7598 70.0031C58.3824 69.5961 59.1087 69.3925 59.9388 69.3925C60.4177 69.3925 60.8906 69.4724 61.3575 69.632C61.8244 69.7916 62.2495 70.051 62.6326 70.4102C63.0157 70.7654 63.321 71.2363 63.5485 71.8229C63.7759 72.4096 63.8897 73.1319 63.8897 73.99V74.5886H56.802V73.3674H62.453C62.453 72.8486 62.3492 72.3856 62.1417 71.9786C61.9382 71.5715 61.6468 71.2503 61.2677 71.0148C60.8926 70.7794 60.4496 70.6616 59.9388 70.6616C59.3761 70.6616 58.8892 70.8013 58.4781 71.0807C58.0711 71.356 57.7578 71.7152 57.5383 72.1582C57.3188 72.6012 57.2091 73.0761 57.2091 73.5829V74.397C57.2091 75.0914 57.3288 75.6801 57.5682 76.1629C57.8117 76.6418 58.1489 77.007 58.5799 77.2584C59.0109 77.5058 59.5118 77.6296 60.0825 77.6296C60.4536 77.6296 60.7888 77.5777 61.0881 77.4739C61.3914 77.3662 61.6528 77.2065 61.8723 76.995C62.0918 76.7795 62.2614 76.5121 62.3812 76.1929L63.746 76.576C63.6023 77.0389 63.3609 77.446 63.0217 77.7972C62.6825 78.1444 62.2634 78.4157 61.7646 78.6113C61.2657 78.8029 60.705 78.8986 60.0825 78.8986ZM67.0902 73.1758V78.7071H65.6775V69.5123H67.0423V70.949H67.1621C67.3776 70.482 67.7048 70.1069 68.1438 69.8236C68.5828 69.5362 69.1495 69.3925 69.8439 69.3925C70.4665 69.3925 71.0112 69.5203 71.4781 69.7757C71.945 70.0271 72.3082 70.4102 72.5676 70.925C72.827 71.4358 72.9567 72.0823 72.9567 72.8645V78.7071H71.544V72.9603C71.544 72.238 71.3564 71.6753 70.9813 71.2722C70.6061 70.8652 70.0913 70.6616 69.4368 70.6616C68.9859 70.6616 68.5828 70.7594 68.2276 70.9549C67.8764 71.1505 67.5991 71.4358 67.3955 71.811C67.192 72.1861 67.0902 72.6411 67.0902 73.1758ZM79.1758 69.5123V70.7095H74.4108V69.5123H79.1758ZM75.7996 67.3094H77.2123V76.0731C77.2123 76.4722 77.2702 76.7715 77.3859 76.9711C77.5057 77.1666 77.6573 77.2983 77.8409 77.3662C78.0285 77.43 78.226 77.4619 78.4335 77.4619C78.5892 77.4619 78.7169 77.454 78.8166 77.438C78.9164 77.418 78.9962 77.4021 79.0561 77.3901L79.3434 78.6592C79.2477 78.6951 79.114 78.731 78.9424 78.7669C78.7708 78.8068 78.5533 78.8268 78.2899 78.8268C77.8908 78.8268 77.4997 78.741 77.1166 78.5694C76.7374 78.3978 76.4222 78.1364 76.1707 77.7852C75.9233 77.434 75.7996 76.991 75.7996 76.4563V67.3094Z" fill="black"/>
</svg>
