<svg width="26" height="27" viewBox="0 0 26 27" fill="none" xmlns="http://www.w3.org/2000/svg">
<path d="M16.6829 12.1037C17.5719 12.1037 18.2926 11.383 18.2926 10.4939C18.2926 9.6049 17.5719 8.88419 16.6829 8.88419C15.7938 8.88419 15.0731 9.6049 15.0731 10.4939C15.0731 11.383 15.7938 12.1037 16.6829 12.1037Z" fill="#8D9295"/>
<path d="M9.17067 12.1037C10.0597 12.1037 10.7804 11.383 10.7804 10.4939C10.7804 9.6049 10.0597 8.88419 9.17067 8.88419C8.28163 8.88419 7.56091 9.6049 7.56091 10.4939C7.56091 11.383 8.28163 12.1037 9.17067 12.1037Z" fill="#8D9295"/>
<path d="M3.75594 13.1769C3.75594 18.2436 7.85997 22.3476 12.9267 22.3476C17.9934 22.3476 22.0974 18.2436 22.0974 13.1769C22.0974 8.11015 17.9934 4.00613 12.9267 4.00613C7.85997 4.00613 3.75594 8.11015 3.75594 13.1769Z" stroke="#8D9295" stroke-width="1.17073"/>
<path d="M17.4271 15.9086C16.5229 17.8053 14.821 19.0306 12.9268 19.0306C11.0325 19.0306 9.33063 17.8053 8.42642 15.9086H17.4271Z" stroke="#8D9295" stroke-width="1.17073"/>
</svg>
