<svg width="58" height="83" viewBox="0 0 58 83" fill="none" xmlns="http://www.w3.org/2000/svg">
<ellipse cx="29.0913" cy="29.8091" rx="28.898" ry="28.898" fill="#B758E6"/>
<path d="M57.9893 29.8091C57.9893 37.4733 54.9447 44.8236 49.5253 50.2431C44.1058 55.6625 36.7555 58.7071 29.0913 58.7071C21.4271 58.7071 14.0768 55.6625 8.65738 50.2431C3.23796 44.8237 0.193361 37.4733 0.193359 29.8091L29.0913 29.8091H57.9893Z" fill="#C861FA"/>
<path d="M17.0505 22.5846C17.0505 21.2601 18.08 20.1765 19.3383 20.1765H37.6403C38.2471 20.1765 38.829 20.4302 39.258 20.8818C39.6871 21.3334 39.9281 21.9459 39.9281 22.5846V37.0336C39.9281 37.6723 39.6871 38.2848 39.258 38.7364C38.829 39.1881 38.2471 39.4418 37.6403 39.4418H19.3383C18.7315 39.4418 18.1496 39.1881 17.7206 38.7364C17.2916 38.2848 17.0505 37.6723 17.0505 37.0336V22.5846ZM29.6332 33.4214L26.2016 29.8091L19.3383 37.0336H37.6403L31.9209 31.0132L29.6332 33.4214ZM34.2087 28.605C34.8155 28.605 35.3973 28.3513 35.8264 27.8997C36.2554 27.4481 36.4965 26.8356 36.4965 26.1969C36.4965 25.5582 36.2554 24.9457 35.8264 24.494C35.3973 24.0424 34.8155 23.7887 34.2087 23.7887C33.6019 23.7887 33.0201 24.0424 32.591 24.494C32.162 24.9457 31.9209 25.5582 31.9209 26.1969C31.9209 26.8356 32.162 27.4481 32.591 27.8997C33.0201 28.3513 33.6019 28.605 34.2087 28.605Z" fill="#FEFEFF"/>
<path d="M11.9566 70.2785C11.8249 69.8754 11.6513 69.5143 11.4358 69.195C11.2243 68.8717 10.9708 68.5964 10.6755 68.3689C10.3842 68.1414 10.053 67.9678 9.68181 67.8481C9.31067 67.7284 8.90361 67.6685 8.46063 67.6685C7.7343 67.6685 7.07382 67.8561 6.47919 68.2312C5.88456 68.6064 5.41165 69.1591 5.06046 69.8894C4.70927 70.6197 4.53368 71.5157 4.53368 72.5772C4.53368 73.6388 4.71127 74.5347 5.06645 75.265C5.42163 75.9953 5.90252 76.5481 6.50912 76.9232C7.11573 77.2983 7.79815 77.4859 8.55641 77.4859C9.25879 77.4859 9.87736 77.3362 10.4121 77.0369C10.9509 76.7336 11.3699 76.3066 11.6692 75.7559C11.9725 75.2012 12.1242 74.5487 12.1242 73.7984L12.5791 73.8942H8.89163V72.5772H13.5609V73.8942C13.5609 74.9038 13.3454 75.7818 12.9144 76.5281C12.4873 77.2744 11.8967 77.853 11.1424 78.2641C10.3922 78.6712 9.53016 78.8747 8.55641 78.8747C7.47091 78.8747 6.51711 78.6193 5.695 78.1085C4.87689 77.5976 4.23836 76.8713 3.77942 75.9295C3.32447 74.9877 3.09699 73.8702 3.09699 72.5772C3.09699 71.6074 3.22669 70.7355 3.48609 69.9612C3.74949 69.183 4.12063 68.5206 4.59953 67.9738C5.07842 67.4271 5.64512 67.008 6.29961 66.7167C6.9541 66.4254 7.67444 66.2797 8.46063 66.2797C9.10714 66.2797 9.70975 66.3775 10.2685 66.573C10.8312 66.7646 11.332 67.038 11.771 67.3932C12.214 67.7443 12.5831 68.1654 12.8784 68.6562C13.1738 69.1431 13.3773 69.6839 13.489 70.2785H11.9566ZM18.2565 78.9226C17.6738 78.9226 17.1451 78.8128 16.6701 78.5933C16.1952 78.3699 15.8181 78.0486 15.5388 77.6296C15.2594 77.2065 15.1197 76.6957 15.1197 76.0971C15.1197 75.5703 15.2235 75.1433 15.431 74.816C15.6385 74.4848 15.9159 74.2254 16.2631 74.0378C16.6103 73.8503 16.9934 73.7106 17.4124 73.6188C17.8355 73.523 18.2605 73.4472 18.6875 73.3913C19.2462 73.3195 19.6992 73.2656 20.0464 73.2297C20.3976 73.1898 20.653 73.1239 20.8126 73.0322C20.9762 72.9404 21.058 72.7807 21.058 72.5533V72.5054C21.058 71.9147 20.8964 71.4558 20.5731 71.1285C20.2539 70.8013 19.769 70.6377 19.1185 70.6377C18.4441 70.6377 17.9153 70.7853 17.5322 71.0807C17.149 71.376 16.8797 71.6912 16.724 72.0265L15.3831 71.5476C15.6226 70.9889 15.9418 70.5539 16.3409 70.2426C16.744 69.9273 17.183 69.7078 17.6579 69.5841C18.1368 69.4564 18.6077 69.3925 19.0706 69.3925C19.3659 69.3925 19.7051 69.4285 20.0883 69.5003C20.4754 69.5681 20.8485 69.7098 21.2077 69.9253C21.5708 70.1408 21.8722 70.4661 22.1116 70.9011C22.3511 71.3361 22.4708 71.9187 22.4708 72.649V78.7071H21.058V77.4619H20.9862C20.8904 77.6615 20.7308 77.875 20.5073 78.1025C20.2838 78.3299 19.9865 78.5235 19.6154 78.6831C19.2442 78.8428 18.7913 78.9226 18.2565 78.9226ZM18.472 77.6535C19.0307 77.6535 19.5016 77.5438 19.8847 77.3243C20.2718 77.1048 20.5632 76.8214 20.7587 76.4742C20.9583 76.127 21.058 75.7619 21.058 75.3787V74.0857C20.9982 74.1576 20.8665 74.2234 20.6629 74.2833C20.4634 74.3391 20.2319 74.389 19.9685 74.4329C19.7091 74.4728 19.4557 74.5088 19.2083 74.5407C18.9649 74.5686 18.7673 74.5926 18.6157 74.6125C18.2485 74.6604 17.9053 74.7382 17.586 74.846C17.2708 74.9497 17.0153 75.1074 16.8198 75.3189C16.6282 75.5264 16.5325 75.8098 16.5325 76.1689C16.5325 76.6598 16.714 77.0309 17.0772 77.2824C17.4444 77.5298 17.9093 77.6535 18.472 77.6535ZM26.1008 66.4473V78.7071H24.6881V66.4473H26.1008ZM29.7399 66.4473V78.7071H28.3272V66.4473H29.7399ZM35.8213 78.8986C34.9354 78.8986 34.1711 78.7031 33.5286 78.312C32.8901 77.9169 32.3972 77.3662 32.05 76.6598C31.7068 75.9494 31.5352 75.1233 31.5352 74.1815C31.5352 73.2397 31.7068 72.4096 32.05 71.6912C32.3972 70.9689 32.8801 70.4062 33.4987 70.0031C34.1212 69.5961 34.8476 69.3925 35.6777 69.3925C36.1566 69.3925 36.6295 69.4724 37.0964 69.632C37.5633 69.7916 37.9883 70.051 38.3714 70.4102C38.7546 70.7654 39.0599 71.2363 39.2873 71.8229C39.5148 72.4096 39.6285 73.1319 39.6285 73.99V74.5886H32.5409V73.3674H38.1919C38.1919 72.8486 38.0881 72.3856 37.8806 71.9786C37.677 71.5715 37.3857 71.2503 37.0066 71.0148C36.6315 70.7794 36.1885 70.6616 35.6777 70.6616C35.115 70.6616 34.6281 70.8013 34.217 71.0807C33.81 71.356 33.4967 71.7152 33.2772 72.1582C33.0577 72.6012 32.9479 73.0761 32.9479 73.5829V74.397C32.9479 75.0914 33.0677 75.6801 33.3071 76.1629C33.5506 76.6418 33.8878 77.007 34.3188 77.2584C34.7498 77.5058 35.2506 77.6296 35.8213 77.6296C36.1925 77.6296 36.5277 77.5777 36.827 77.4739C37.1303 77.3662 37.3917 77.2065 37.6112 76.995C37.8307 76.7795 38.0003 76.5121 38.12 76.1929L39.4849 76.576C39.3412 77.0389 39.0998 77.446 38.7606 77.7972C38.4213 78.1444 38.0023 78.4157 37.5034 78.6113C37.0046 78.8029 36.4439 78.8986 35.8213 78.8986ZM41.4164 78.7071V69.5123H42.7812V70.9011H42.877C43.0446 70.4461 43.3479 70.077 43.7869 69.7936C44.2259 69.5103 44.7208 69.3686 45.2715 69.3686C45.3752 69.3686 45.5049 69.3706 45.6606 69.3746C45.8162 69.3786 45.934 69.3846 46.0138 69.3925V70.8292C45.9659 70.8173 45.8561 70.7993 45.6845 70.7754C45.5169 70.7474 45.3393 70.7335 45.1518 70.7335C44.7048 70.7335 44.3057 70.8272 43.9545 71.0148C43.6073 71.1984 43.332 71.4538 43.1284 71.781C42.9289 72.1043 42.8291 72.4734 42.8291 72.8885V78.7071H41.4164ZM48.5169 82.1551C48.2775 82.1551 48.064 82.1352 47.8764 82.0953C47.6889 82.0593 47.5592 82.0234 47.4873 81.9875L47.8465 80.7424C48.1897 80.8302 48.493 80.8621 48.7564 80.8382C49.0198 80.8142 49.2533 80.6965 49.4568 80.485C49.6643 80.2775 49.8539 79.9402 50.0255 79.4733L50.2889 78.755L46.8887 69.5123H48.4212L50.9593 76.8394H51.0551L53.5932 69.5123H55.1257L51.2227 80.048C51.0471 80.5229 50.8296 80.916 50.5702 81.2273C50.3108 81.5425 50.0095 81.776 49.6663 81.9277C49.3271 82.0793 48.944 82.1551 48.5169 82.1551Z" fill="black"/>
</svg>
