<svg width="58" height="82" viewBox="0 0 58 82" fill="none" xmlns="http://www.w3.org/2000/svg">
<ellipse cx="28.898" cy="28.898" rx="28.898" ry="28.898" fill="#EBD564"/>
<path d="M57.7959 28.898C57.7959 32.6929 57.0484 36.4507 55.5962 39.9567C54.1439 43.4628 52.0153 46.6485 49.3319 49.3319C46.6485 52.0153 43.4628 54.1439 39.9567 55.5962C36.4507 57.0485 32.6929 57.7959 28.898 57.7959C25.103 57.7959 21.3452 57.0485 17.8392 55.5962C14.3331 54.1439 11.1474 52.0153 8.46401 49.3319C5.78059 46.6485 3.65198 43.4628 2.19973 39.9567C0.747467 36.4507 -3.31764e-07 32.6929 0 28.898L28.898 28.898H57.7959Z" fill="#EDDE91"/>
<path d="M44.9388 28.8979C44.9388 28.0996 44.6217 27.3339 44.0572 26.7694C43.4927 26.2049 42.727 25.8877 41.9286 25.8877L23.8674 25.8877C23.0691 25.8877 22.3034 26.2049 21.7389 26.7694C21.1744 27.3339 20.8572 28.0996 20.8572 28.8979C20.8572 29.6963 21.1744 30.4619 21.7389 31.0265C22.3034 31.591 23.0691 31.9081 23.8674 31.9081L41.9286 31.9081C42.727 31.9081 43.4927 31.591 44.0572 31.0265C44.6217 30.4619 44.9388 29.6963 44.9388 28.8979ZM44.898 19.8673C44.898 19.069 44.5809 18.3033 44.0164 17.7388C43.4518 17.1743 42.6862 16.8571 41.8878 16.8571H23.8674C23.0691 16.8571 22.3034 17.1743 21.7389 17.7388C21.1744 18.3033 20.8572 19.069 20.8572 19.8673C20.8572 20.6657 21.1744 21.4313 21.7389 21.9959C22.3034 22.5604 23.0691 22.8775 23.8674 22.8775L41.8878 22.8775C42.6862 22.8775 43.4518 22.5604 44.0164 21.9959C44.5809 21.4313 44.898 20.6657 44.898 19.8673ZM38.9184 37.9285C38.9184 37.1302 38.6013 36.3645 38.0368 35.8C37.4722 35.2355 36.7066 34.9183 35.9082 34.9183H23.8674C23.0691 34.9183 22.3034 35.2355 21.7389 35.8C21.1744 36.3645 20.8572 37.1302 20.8572 37.9285C20.8572 38.7269 21.1744 39.4926 21.7389 40.0571C22.3034 40.6216 23.0691 40.9387 23.8674 40.9387H35.9082C36.7066 40.9387 37.4722 40.6216 38.0368 40.0571C38.6013 39.4926 38.9184 38.7269 38.9184 37.9285Z" fill="#FFFDFE"/>
<path d="M19.0818 28.8979C19.0818 28.0996 18.7646 27.3339 18.2001 26.7694C17.6356 26.2049 16.8699 25.8877 16.0716 25.8877H16.0104C15.212 25.8877 14.4463 26.2049 13.8818 26.7694C13.3173 27.3339 13.0002 28.0996 13.0002 28.8979C13.0002 29.6963 13.3173 30.4619 13.8818 31.0265C14.4463 31.591 15.212 31.9081 16.0104 31.9081H16.0716C16.8699 31.9081 17.6356 31.591 18.2001 31.0265C18.7646 30.4619 19.0818 29.6963 19.0818 28.8979ZM19.041 19.8673C19.041 19.069 18.7238 18.3033 18.1593 17.7388C17.5948 17.1743 16.8291 16.8571 16.0308 16.8571H16.0104C15.212 16.8571 14.4463 17.1743 13.8818 17.7388C13.3173 18.3033 13.0002 19.069 13.0002 19.8673C13.0002 20.6657 13.3173 21.4313 13.8818 21.9959C14.4463 22.5604 15.212 22.8775 16.0104 22.8775H16.0308C16.8291 22.8775 17.5948 22.5604 18.1593 21.9959C18.7238 21.4313 19.041 20.6657 19.041 19.8673ZM19.0614 37.9285C19.0614 37.1302 18.7442 36.3645 18.1797 35.8C17.6152 35.2355 16.8495 34.9183 16.0512 34.9183H16.0104C15.212 34.9183 14.4463 35.2355 13.8818 35.8C13.3173 36.3645 13.0002 37.1302 13.0002 37.9285C13.0002 38.7269 13.3173 39.4926 13.8818 40.0571C14.4463 40.6216 15.212 40.9387 16.0104 40.9387H16.0512C16.8495 40.9387 17.6152 40.6216 18.1797 40.0571C18.7442 39.4926 19.0614 38.7269 19.0614 37.9285Z" fill="#FFFDFE"/>
<path d="M16.3825 77.7959V65.5362H17.8671V76.479H23.566V77.7959H16.3825ZM25.3119 77.7959V68.6011H26.7246V77.7959H25.3119ZM26.0302 67.0687C25.7549 67.0687 25.5174 66.9749 25.3179 66.7873C25.1223 66.5997 25.0245 66.3743 25.0245 66.1109C25.0245 65.8475 25.1223 65.622 25.3179 65.4344C25.5174 65.2469 25.7549 65.1531 26.0302 65.1531C26.3056 65.1531 26.5411 65.2469 26.7366 65.4344C26.9361 65.622 27.0359 65.8475 27.0359 66.1109C27.0359 66.3743 26.9361 66.5997 26.7366 66.7873C26.5411 66.9749 26.3056 67.0687 26.0302 67.0687ZM35.4639 70.6604L34.1949 71.0195C34.115 70.808 33.9973 70.6025 33.8417 70.403C33.69 70.1994 33.4825 70.0318 33.2191 69.9001C32.9557 69.7684 32.6185 69.7026 32.2074 69.7026C31.6447 69.7026 31.1758 69.8323 30.8007 70.0917C30.4295 70.3471 30.244 70.6723 30.244 71.0674C30.244 71.4186 30.3717 71.696 30.6271 71.8995C30.8825 72.1031 31.2816 72.2727 31.8243 72.4083L33.1892 72.7436C34.0113 72.9431 34.6239 73.2484 35.0269 73.6595C35.43 74.0665 35.6315 74.5913 35.6315 75.2338C35.6315 75.7606 35.4799 76.2315 35.1766 76.6466C34.8773 77.0616 34.4582 77.3889 33.9195 77.6283C33.3807 77.8678 32.7542 77.9875 32.0398 77.9875C31.102 77.9875 30.3258 77.784 29.7112 77.3769C29.0966 76.9698 28.7075 76.3752 28.5439 75.593L29.8848 75.2578C30.0125 75.7526 30.2539 76.1238 30.6091 76.3712C30.9683 76.6186 31.4372 76.7424 32.0159 76.7424C32.6744 76.7424 33.1972 76.6027 33.5843 76.3233C33.9754 76.04 34.1709 75.7008 34.1709 75.3057C34.1709 74.9864 34.0592 74.719 33.8357 74.5035C33.6122 74.284 33.269 74.1204 32.8061 74.0126L31.2736 73.6535C30.4315 73.4539 29.813 73.1447 29.4179 72.7256C29.0268 72.3026 28.8312 71.7738 28.8312 71.1393C28.8312 70.6205 28.9769 70.1615 29.2682 69.7624C29.5635 69.3634 29.9646 69.0501 30.4714 68.8226C30.9823 68.5951 31.5609 68.4814 32.2074 68.4814C33.1173 68.4814 33.8317 68.6809 34.3505 69.08C34.8733 69.4791 35.2444 70.0059 35.4639 70.6604ZM41.3957 68.6011V69.7984H36.6307V68.6011H41.3957ZM38.0195 66.3982H39.4322V75.162C39.4322 75.5611 39.4901 75.8604 39.6058 76.0599C39.7255 76.2555 39.8772 76.3872 40.0608 76.455C40.2483 76.5189 40.4459 76.5508 40.6534 76.5508C40.809 76.5508 40.9368 76.5428 41.0365 76.5269C41.1363 76.5069 41.2161 76.4909 41.276 76.479L41.5633 77.748C41.4675 77.784 41.3338 77.8199 41.1622 77.8558C40.9906 77.8957 40.7731 77.9157 40.5097 77.9157C40.1107 77.9157 39.7196 77.8299 39.3364 77.6582C38.9573 77.4866 38.642 77.2252 38.3906 76.8741C38.1432 76.5229 38.0195 76.0799 38.0195 75.5451V66.3982Z" fill="black"/>
</svg>
