<svg width="67" height="83" viewBox="0 0 67 83" fill="none" xmlns="http://www.w3.org/2000/svg">
<ellipse cx="33.5812" cy="29.7683" rx="28.898" ry="28.898" fill="#1F9950"/>
<path d="M62.4791 29.7683C62.4791 33.5632 61.7317 37.321 60.2794 40.827C58.8272 44.3331 56.6985 47.5188 54.0151 50.2022C51.3317 52.8856 48.146 55.0142 44.64 56.4665C41.1339 57.9188 37.3761 58.6662 33.5812 58.6662C29.7862 58.6662 26.0285 57.9188 22.5224 56.4665C19.0164 55.0142 15.8307 52.8856 13.1472 50.2022C10.4638 47.5188 8.33521 44.3331 6.88295 40.827C5.43069 37.321 4.68323 33.5632 4.68323 29.7683L33.5812 29.7683H62.4791Z" fill="#1BAB56"/>
<path d="M33.5812 16.5234C28.9214 16.5234 25.1526 20.4806 25.1526 25.3734C25.1526 32.0109 33.5812 41.8091 33.5812 41.8091C33.5812 41.8091 42.0097 32.0109 42.0097 25.3734C42.0097 20.4806 38.241 16.5234 33.5812 16.5234ZM33.5812 28.5341C32.7828 28.5341 32.0171 28.2011 31.4526 27.6083C30.8881 27.0156 30.571 26.2116 30.571 25.3734C30.571 24.5351 30.8881 23.7312 31.4526 23.1384C32.0171 22.5457 32.7828 22.2127 33.5812 22.2127C34.3795 22.2127 35.1452 22.5457 35.7097 23.1384C36.2742 23.7312 36.5914 24.5351 36.5914 25.3734C36.5914 26.2116 36.2742 27.0156 35.7097 27.6083C35.1452 28.2011 34.3795 28.5341 33.5812 28.5341Z" fill="white"/>
<path d="M2.06575 78.6662V66.4065H3.55033V77.3493H9.2492V78.6662H2.06575ZM14.7305 78.8578C13.9004 78.8578 13.1721 78.6602 12.5455 78.2652C11.923 77.8701 11.4361 77.3173 11.0849 76.607C10.7377 75.8966 10.5641 75.0665 10.5641 74.1167C10.5641 73.1589 10.7377 72.3229 11.0849 71.6085C11.4361 70.8941 11.923 70.3394 12.5455 69.9443C13.1721 69.5492 13.9004 69.3517 14.7305 69.3517C15.5606 69.3517 16.2869 69.5492 16.9095 69.9443C17.536 70.3394 18.0229 70.8941 18.3701 71.6085C18.7213 72.3229 18.8969 73.1589 18.8969 74.1167C18.8969 75.0665 18.7213 75.8966 18.3701 76.607C18.0229 77.3173 17.536 77.8701 16.9095 78.2652C16.2869 78.6602 15.5606 78.8578 14.7305 78.8578ZM14.7305 77.5887C15.3611 77.5887 15.8799 77.4271 16.2869 77.1038C16.694 76.7806 16.9953 76.3556 17.1908 75.8288C17.3864 75.302 17.4842 74.7313 17.4842 74.1167C17.4842 73.5021 17.3864 72.9295 17.1908 72.3987C16.9953 71.8679 16.694 71.4389 16.2869 71.1116C15.8799 70.7844 15.3611 70.6208 14.7305 70.6208C14.1 70.6208 13.5812 70.7844 13.1741 71.1116C12.767 71.4389 12.4657 71.8679 12.2702 72.3987C12.0746 72.9295 11.9769 73.5021 11.9769 74.1167C11.9769 74.7313 12.0746 75.302 12.2702 75.8288C12.4657 76.3556 12.767 76.7806 13.1741 77.1038C13.5812 77.4271 14.1 77.5887 14.7305 77.5887ZM24.4276 78.8578C23.5656 78.8578 22.8233 78.6543 22.2007 78.2472C21.5782 77.8401 21.0993 77.2794 20.764 76.5651C20.4288 75.8507 20.2612 75.0346 20.2612 74.1167C20.2612 73.1829 20.4328 72.3588 20.776 71.6444C21.1232 70.9261 21.6061 70.3654 22.2247 69.9623C22.8472 69.5552 23.5736 69.3517 24.4036 69.3517C25.0502 69.3517 25.6328 69.4714 26.1516 69.7109C26.6704 69.9503 27.0954 70.2855 27.4267 70.7166C27.7579 71.1476 27.9634 71.6504 28.0433 72.2251H26.6305C26.5228 71.806 26.2833 71.4349 25.9122 71.1116C25.545 70.7844 25.0502 70.6208 24.4276 70.6208C23.8769 70.6208 23.394 70.7644 22.9789 71.0518C22.5679 71.3351 22.2466 71.7362 22.0152 72.255C21.7877 72.7698 21.6739 73.3744 21.6739 74.0688C21.6739 74.7792 21.7857 75.3978 22.0092 75.9245C22.2366 76.4513 22.5559 76.8604 22.967 77.1517C23.382 77.443 23.8689 77.5887 24.4276 77.5887C24.7947 77.5887 25.128 77.5249 25.4273 77.3972C25.7266 77.2694 25.98 77.0859 26.1875 76.8464C26.3951 76.607 26.5427 76.3196 26.6305 75.9844H28.0433C27.9634 76.5272 27.7659 77.016 27.4506 77.451C27.1393 77.882 26.7263 78.2252 26.2115 78.4807C25.7007 78.7321 25.106 78.8578 24.4276 78.8578ZM32.453 78.8817C31.8704 78.8817 31.3416 78.772 30.8667 78.5525C30.3918 78.329 30.0147 78.0077 29.7353 77.5887C29.4559 77.1657 29.3163 76.6549 29.3163 76.0562C29.3163 75.5295 29.42 75.1024 29.6275 74.7752C29.8351 74.444 30.1124 74.1846 30.4596 73.997C30.8068 73.8094 31.1899 73.6697 31.609 73.578C32.032 73.4822 32.457 73.4064 32.884 73.3505C33.4428 73.2786 33.8957 73.2248 34.2429 73.1889C34.5941 73.1489 34.8495 73.0831 35.0091 72.9913C35.1728 72.8995 35.2546 72.7399 35.2546 72.5124V72.4645C35.2546 71.8739 35.093 71.4149 34.7697 71.0877C34.4504 70.7605 33.9655 70.5968 33.315 70.5968C32.6406 70.5968 32.1118 70.7445 31.7287 71.0398C31.3456 71.3351 31.0762 71.6504 30.9206 71.9856L29.5797 71.5067C29.8191 70.948 30.1384 70.513 30.5375 70.2017C30.9405 69.8865 31.3795 69.667 31.8544 69.5433C32.3333 69.4156 32.8042 69.3517 33.2672 69.3517C33.5625 69.3517 33.9017 69.3876 34.2848 69.4595C34.6719 69.5273 35.0451 69.669 35.4042 69.8845C35.7674 70.1 36.0687 70.4252 36.3081 70.8602C36.5476 71.2952 36.6673 71.8779 36.6673 72.6082V78.6662H35.2546V77.4211H35.1827C35.087 77.6206 34.9273 77.8341 34.7038 78.0616C34.4804 78.2891 34.183 78.4827 33.8119 78.6423C33.4408 78.8019 32.9878 78.8817 32.453 78.8817ZM32.6685 77.6127C33.2273 77.6127 33.6982 77.5029 34.0813 77.2834C34.4684 77.0639 34.7597 76.7806 34.9553 76.4334C35.1548 76.0862 35.2546 75.721 35.2546 75.3379V74.0449C35.1947 74.1167 35.063 74.1826 34.8595 74.2424C34.6599 74.2983 34.4285 74.3482 34.1651 74.3921C33.9057 74.432 33.6523 74.4679 33.4048 74.4998C33.1614 74.5278 32.9639 74.5517 32.8122 74.5717C32.4451 74.6196 32.1018 74.6974 31.7826 74.8051C31.4673 74.9089 31.2119 75.0665 31.0163 75.278C30.8248 75.4856 30.729 75.7689 30.729 76.1281C30.729 76.6189 30.9106 76.9901 31.2738 77.2415C31.6409 77.4889 32.1058 77.6127 32.6685 77.6127ZM42.8834 69.4714V70.6687H38.1184V69.4714H42.8834ZM39.5072 67.2685H40.92V76.0323C40.92 76.4314 40.9778 76.7307 41.0936 76.9302C41.2133 77.1258 41.3649 77.2575 41.5485 77.3253C41.7361 77.3892 41.9336 77.4211 42.1411 77.4211C42.2968 77.4211 42.4245 77.4131 42.5243 77.3972C42.624 77.3772 42.7038 77.3612 42.7637 77.3493L43.051 78.6183C42.9553 78.6543 42.8216 78.6902 42.65 78.7261C42.4784 78.766 42.2609 78.786 41.9975 78.786C41.5984 78.786 41.2073 78.7002 40.8242 78.5285C40.4451 78.3569 40.1298 78.0955 39.8784 77.7444C39.6309 77.3932 39.5072 76.9502 39.5072 76.4154V67.2685ZM44.6473 78.6662V69.4714H46.0601V78.6662H44.6473ZM45.3657 67.939C45.0903 67.939 44.8528 67.8452 44.6533 67.6576C44.4578 67.47 44.36 67.2446 44.36 66.9812C44.36 66.7178 44.4578 66.4923 44.6533 66.3047C44.8528 66.1172 45.0903 66.0234 45.3657 66.0234C45.641 66.0234 45.8765 66.1172 46.072 66.3047C46.2716 66.4923 46.3713 66.7178 46.3713 66.9812C46.3713 67.2446 46.2716 67.47 46.072 67.6576C45.8765 67.8452 45.641 67.939 45.3657 67.939ZM52.0218 78.8578C51.1917 78.8578 50.4633 78.6602 49.8368 78.2652C49.2142 77.8701 48.7274 77.3173 48.3762 76.607C48.029 75.8966 47.8554 75.0665 47.8554 74.1167C47.8554 73.1589 48.029 72.3229 48.3762 71.6085C48.7274 70.8941 49.2142 70.3394 49.8368 69.9443C50.4633 69.5492 51.1917 69.3517 52.0218 69.3517C52.8518 69.3517 53.5782 69.5492 54.2007 69.9443C54.8273 70.3394 55.3142 70.8941 55.6614 71.6085C56.0126 72.3229 56.1882 73.1589 56.1882 74.1167C56.1882 75.0665 56.0126 75.8966 55.6614 76.607C55.3142 77.3173 54.8273 77.8701 54.2007 78.2652C53.5782 78.6602 52.8518 78.8578 52.0218 78.8578ZM52.0218 77.5887C52.6523 77.5887 53.1711 77.4271 53.5782 77.1038C53.9852 76.7806 54.2865 76.3556 54.4821 75.8288C54.6776 75.302 54.7754 74.7313 54.7754 74.1167C54.7754 73.5021 54.6776 72.9295 54.4821 72.3987C54.2865 71.8679 53.9852 71.4389 53.5782 71.1116C53.1711 70.7844 52.6523 70.6208 52.0218 70.6208C51.3912 70.6208 50.8724 70.7844 50.4653 71.1116C50.0583 71.4389 49.757 71.8679 49.5614 72.3987C49.3659 72.9295 49.2681 73.5021 49.2681 74.1167C49.2681 74.7313 49.3659 75.302 49.5614 75.8288C49.757 76.3556 50.0583 76.7806 50.4653 77.1038C50.8724 77.4271 51.3912 77.5887 52.0218 77.5887ZM59.3962 73.135V78.6662H57.9835V69.4714H59.3483V70.9081H59.468C59.6835 70.4412 60.0108 70.0661 60.4498 69.7827C60.8888 69.4954 61.4555 69.3517 62.1499 69.3517C62.7724 69.3517 63.3172 69.4794 63.7841 69.7348C64.251 69.9862 64.6142 70.3694 64.8736 70.8842C65.133 71.395 65.2627 72.0415 65.2627 72.8237V78.6662H63.8499V72.9195C63.8499 72.1971 63.6624 71.6344 63.2872 71.2314C62.9121 70.8243 62.3973 70.6208 61.7428 70.6208C61.2918 70.6208 60.8888 70.7185 60.5336 70.9141C60.1824 71.1096 59.905 71.395 59.7015 71.7701C59.498 72.1453 59.3962 72.6002 59.3962 73.135Z" fill="black"/>
</svg>
