<svg width="48" height="48" viewBox="0 0 48 48" fill="none" xmlns="http://www.w3.org/2000/svg">
<ellipse cx="23.6828" cy="24.1768" rx="23.4146" ry="23.4146" fill="#09AD8A"/>
<path d="M18.4146 24.1768C18.4146 24.0215 18.353 23.8727 18.2432 23.7629C18.1334 23.6531 17.9845 23.5914 17.8293 23.5914C17.674 23.5914 17.5251 23.6531 17.4153 23.7629C17.3056 23.8727 17.2439 24.0215 17.2439 24.1768C17.2437 25.7834 17.844 27.332 18.9271 28.5186C20.0101 29.7052 21.4977 30.444 23.0976 30.5901V32.9573C23.0976 33.1125 23.1592 33.2614 23.269 33.3712C23.3788 33.481 23.5277 33.5426 23.6829 33.5426C23.8382 33.5426 23.9871 33.481 24.0968 33.3712C24.2066 33.2614 24.2683 33.1125 24.2683 32.9573V30.5901C25.8682 30.444 27.3557 29.7052 28.4388 28.5186C29.5218 27.332 30.1222 25.7834 30.1219 24.1768C30.1219 24.0215 30.0603 23.8727 29.9505 23.7629C29.8407 23.6531 29.6918 23.5914 29.5366 23.5914C29.3813 23.5914 29.2324 23.6531 29.1227 23.7629C29.0129 23.8727 28.9512 24.0215 28.9512 24.1768C28.9512 24.8686 28.8149 25.5537 28.5502 26.1929C28.2854 26.8321 27.8974 27.4128 27.4082 27.902C26.919 28.3912 26.3382 28.7793 25.699 29.0441C25.0598 29.3088 24.3748 29.4451 23.6829 29.4451C22.9911 29.4451 22.306 29.3088 21.6668 29.0441C21.0277 28.7793 20.4469 28.3912 19.9577 27.902C19.4685 27.4128 19.0804 26.8321 18.8157 26.1929C18.5509 25.5537 18.4146 24.8686 18.4146 24.1768Z" fill="white"/>
<path d="M27.195 24.1768C27.195 25.1083 26.825 26.0017 26.1663 26.6603C25.5077 27.319 24.6143 27.689 23.6828 27.689C22.7514 27.689 21.858 27.319 21.1994 26.6603C20.5407 26.0017 20.1707 25.1083 20.1707 24.1768V18.3232C20.1707 17.3917 20.5407 16.4983 21.1994 15.8397C21.858 15.181 22.7514 14.811 23.6828 14.811C24.6143 14.811 25.5077 15.181 26.1663 15.8397C26.825 16.4983 27.195 17.3917 27.195 18.3232V24.1768Z" fill="white"/>
</svg>
