<svg width="69" height="83" viewBox="0 0 69 83" fill="none" xmlns="http://www.w3.org/2000/svg">
<ellipse cx="29.5608" cy="29.7683" rx="28.898" ry="28.898" fill="#049A8E"/>
<path d="M58.4588 29.7683C58.4588 33.5632 57.7113 37.321 56.259 40.827C54.8068 44.3331 52.6782 47.5188 49.9947 50.2022C47.3113 52.8856 44.1256 55.0142 40.6196 56.4665C37.1135 57.9188 33.3557 58.6662 29.5608 58.6662C25.7659 58.6662 22.0081 57.9188 18.502 56.4665C14.996 55.0142 11.8103 52.8856 9.12686 50.2022C6.44343 47.5188 4.31483 44.3331 2.86257 40.827C1.41031 37.321 0.662841 33.5632 0.662842 29.7683L29.5608 29.7683H58.4588Z" fill="#04A796"/>
<ellipse cx="29.5608" cy="29.7683" rx="14.449" ry="14.449" fill="#FFFDFE"/>
<path d="M34.6235 27.2316L34.1582 28.8188H25.2918L25.757 27.2316H34.6235ZM30.4639 37.9315L25.456 31.8016L25.4286 30.6523H27.9189C28.5666 30.6523 29.1184 30.5611 29.5745 30.3786C30.0306 30.1916 30.3795 29.9134 30.6212 29.544C30.863 29.17 30.9838 28.7002 30.9838 28.1347C30.9838 27.3 30.733 26.6455 30.2313 26.1712C29.7296 25.6923 28.9588 25.4529 27.9189 25.4529H25.2918L25.757 23.9204H27.9189C29.0318 23.9204 29.944 24.1051 30.6555 24.4745C31.3715 24.8394 31.9006 25.3411 32.2427 25.9796C32.5893 26.6136 32.7626 27.332 32.7626 28.1347C32.7626 28.8599 32.603 29.528 32.2837 30.1392C31.969 30.7458 31.4627 31.2338 30.7649 31.6032C30.0717 31.9727 29.1549 32.1574 28.0147 32.1574H27.9736L32.5984 37.8221V37.9315H30.4639ZM34.6235 23.9204L34.1582 25.5076L27.18 25.4529L27.6452 23.9204H34.6235Z" fill="#209487"/>
<path d="M2.14742 78.6662V66.4065H6.28987C7.25165 66.4065 8.03784 66.5801 8.64843 66.9273C9.26302 67.2705 9.71797 67.7354 10.0133 68.3221C10.3086 68.9087 10.4563 69.5632 10.4563 70.2855C10.4563 71.0079 10.3086 71.6644 10.0133 72.255C9.72196 72.8456 9.271 73.3166 8.66041 73.6678C8.04981 74.015 7.26762 74.1886 6.31382 74.1886H3.34466V72.8716H6.26593C6.92441 72.8716 7.45319 72.7578 7.85227 72.5304C8.25135 72.3029 8.54068 71.9956 8.72027 71.6085C8.90385 71.2174 8.99563 70.7764 8.99563 70.2855C8.99563 69.7947 8.90385 69.3557 8.72027 68.9686C8.54068 68.5815 8.24935 68.2782 7.84628 68.0587C7.44321 67.8352 6.90844 67.7235 6.24198 67.7235H3.632V78.6662H2.14742ZM15.0007 78.8817C14.4181 78.8817 13.8893 78.772 13.4144 78.5525C12.9395 78.329 12.5624 78.0077 12.283 77.5887C12.0036 77.1657 11.864 76.6549 11.864 76.0562C11.864 75.5295 11.9677 75.1024 12.1752 74.7752C12.3828 74.444 12.6601 74.1846 13.0073 73.997C13.3545 73.8094 13.7376 73.6697 14.1567 73.578C14.5797 73.4822 15.0047 73.4064 15.4317 73.3505C15.9905 73.2786 16.4434 73.2248 16.7906 73.1889C17.1418 73.1489 17.3972 73.0831 17.5568 72.9913C17.7205 72.8995 17.8023 72.7399 17.8023 72.5124V72.4645C17.8023 71.8739 17.6406 71.4149 17.3174 71.0877C16.9981 70.7605 16.5132 70.5968 15.8627 70.5968C15.1883 70.5968 14.6595 70.7445 14.2764 71.0398C13.8933 71.3351 13.6239 71.6504 13.4683 71.9856L12.1274 71.5067C12.3668 70.948 12.6861 70.513 13.0851 70.2017C13.4882 69.8865 13.9272 69.667 14.4021 69.5433C14.881 69.4156 15.3519 69.3517 15.8149 69.3517C16.1102 69.3517 16.4494 69.3876 16.8325 69.4595C17.2196 69.5273 17.5928 69.669 17.9519 69.8845C18.3151 70.1 18.6164 70.4252 18.8558 70.8602C19.0953 71.2952 19.215 71.8779 19.215 72.6082V78.6662H17.8023V77.4211H17.7304C17.6347 77.6206 17.475 77.8341 17.2515 78.0616C17.0281 78.2891 16.7307 78.4827 16.3596 78.6423C15.9885 78.8019 15.5355 78.8817 15.0007 78.8817ZM15.2162 77.6127C15.7749 77.6127 16.2459 77.5029 16.629 77.2834C17.0161 77.0639 17.3074 76.7806 17.503 76.4334C17.7025 76.0862 17.8023 75.721 17.8023 75.3379V74.0449C17.7424 74.1167 17.6107 74.1826 17.4072 74.2424C17.2076 74.2983 16.9762 74.3482 16.7128 74.3921C16.4534 74.432 16.2 74.4679 15.9525 74.4998C15.7091 74.5278 15.5116 74.5517 15.3599 74.5717C14.9928 74.6196 14.6495 74.6974 14.3303 74.8051C14.015 74.9089 13.7596 75.0665 13.564 75.278C13.3725 75.4856 13.2767 75.7689 13.2767 76.1281C13.2767 76.6189 13.4583 76.9901 13.8215 77.2415C14.1886 77.4889 14.6535 77.6127 15.2162 77.6127ZM22.013 82.1143C21.7736 82.1143 21.5601 82.0943 21.3725 82.0544C21.1849 82.0185 21.0552 81.9826 20.9834 81.9467L21.3426 80.7015C21.6858 80.7893 21.9891 80.8213 22.2525 80.7973C22.5159 80.7734 22.7493 80.6556 22.9528 80.4441C23.1604 80.2366 23.3499 79.8994 23.5215 79.4325L23.7849 78.7141L20.3848 69.4714H21.9172L24.4554 76.7985H24.5512L27.0893 69.4714H28.6218L24.7188 80.0071C24.5432 80.482 24.3257 80.8751 24.0663 81.1864C23.8069 81.5017 23.5056 81.7352 23.1624 81.8868C22.8231 82.0385 22.44 82.1143 22.013 82.1143ZM30.1253 78.6662V69.4714H31.4901V70.9081H31.6098C31.8014 70.4172 32.1107 70.0361 32.5377 69.7647C32.9647 69.4894 33.4775 69.3517 34.0761 69.3517C34.6827 69.3517 35.1876 69.4894 35.5907 69.7647C35.9977 70.0361 36.315 70.4172 36.5425 70.9081H36.6382C36.8737 70.4332 37.2269 70.0561 37.6978 69.7767C38.1687 69.4934 38.7334 69.3517 39.3919 69.3517C40.214 69.3517 40.8864 69.6091 41.4092 70.1239C41.932 70.6347 42.1934 71.4309 42.1934 72.5124V78.6662H40.7807V72.5124C40.7807 71.834 40.5951 71.3491 40.224 71.0578C39.8528 70.7664 39.4158 70.6208 38.913 70.6208C38.2665 70.6208 37.7656 70.8163 37.4105 71.2074C37.0553 71.5945 36.8777 72.0854 36.8777 72.68V78.6662H35.441V72.3687C35.441 71.846 35.2714 71.4249 34.9322 71.1057C34.593 70.7824 34.156 70.6208 33.6212 70.6208C33.254 70.6208 32.9108 70.7185 32.5916 70.9141C32.2763 71.1096 32.0209 71.381 31.8253 71.7282C31.6338 72.0714 31.538 72.4685 31.538 72.9195V78.6662H30.1253ZM48.2704 78.8578C47.3844 78.8578 46.6202 78.6622 45.9777 78.2711C45.3391 77.8761 44.8463 77.3253 44.4991 76.6189C44.1559 75.9086 43.9842 75.0825 43.9842 74.1407C43.9842 73.1988 44.1559 72.3687 44.4991 71.6504C44.8463 70.9281 45.3291 70.3654 45.9477 69.9623C46.5703 69.5552 47.2966 69.3517 48.1267 69.3517C48.6056 69.3517 49.0785 69.4315 49.5454 69.5911C50.0124 69.7508 50.4374 70.0102 50.8205 70.3694C51.2036 70.7245 51.5089 71.1955 51.7364 71.7821C51.9639 72.3687 52.0776 73.0911 52.0776 73.9491V74.5477H44.9899V73.3265H50.6409C50.6409 72.8077 50.5371 72.3448 50.3296 71.9377C50.1261 71.5307 49.8348 71.2094 49.4556 70.974C49.0805 70.7385 48.6375 70.6208 48.1267 70.6208C47.564 70.6208 47.0771 70.7605 46.6661 71.0398C46.259 71.3152 45.9457 71.6743 45.7262 72.1173C45.5067 72.5603 45.397 73.0352 45.397 73.542V74.3562C45.397 75.0506 45.5167 75.6392 45.7562 76.1221C45.9996 76.601 46.3368 76.9661 46.7678 77.2176C47.1988 77.465 47.6997 77.5887 48.2704 77.5887C48.6415 77.5887 48.9767 77.5368 49.276 77.4331C49.5793 77.3253 49.8407 77.1657 50.0602 76.9542C50.2797 76.7387 50.4493 76.4713 50.5691 76.152L51.9339 76.5351C51.7903 76.9981 51.5488 77.4051 51.2096 77.7563C50.8704 78.1035 50.4513 78.3749 49.9525 78.5705C49.4536 78.762 48.8929 78.8578 48.2704 78.8578ZM55.2782 73.135V78.6662H53.8654V69.4714H55.2303V70.9081H55.35C55.5655 70.4412 55.8927 70.0661 56.3317 69.7827C56.7707 69.4954 57.3374 69.3517 58.0318 69.3517C58.6544 69.3517 59.1991 69.4794 59.666 69.7348C60.133 69.9862 60.4961 70.3694 60.7555 70.8842C61.0149 71.395 61.1446 72.0415 61.1446 72.8237V78.6662H59.7319V72.9195C59.7319 72.1971 59.5443 71.6344 59.1692 71.2314C58.7941 70.8243 58.2792 70.6208 57.6247 70.6208C57.1738 70.6208 56.7707 70.7185 56.4155 70.9141C56.0643 71.1096 55.787 71.395 55.5835 71.7701C55.3799 72.1453 55.2782 72.6002 55.2782 73.135ZM67.3637 69.4714V70.6687H62.5987V69.4714H67.3637ZM63.9875 67.2685H65.4003V76.0323C65.4003 76.4314 65.4581 76.7307 65.5739 76.9302C65.6936 77.1258 65.8452 77.2575 66.0288 77.3253C66.2164 77.3892 66.4139 77.4211 66.6215 77.4211C66.7771 77.4211 66.9048 77.4131 67.0046 77.3972C67.1043 77.3772 67.1842 77.3612 67.244 77.3493L67.5314 78.6183C67.4356 78.6543 67.3019 78.6902 67.1303 78.7261C66.9587 78.766 66.7412 78.786 66.4778 78.786C66.0787 78.786 65.6876 78.7002 65.3045 78.5285C64.9254 78.3569 64.6101 78.0955 64.3587 77.7444C64.1112 77.3932 63.9875 76.9502 63.9875 76.4154V67.2685Z" fill="black"/>
</svg>
