<svg width="59" height="83" viewBox="0 0 59 83" fill="none" xmlns="http://www.w3.org/2000/svg">
<ellipse cx="29.173" cy="29.7275" rx="28.898" ry="28.898" fill="#6F64EB"/>
<path d="M58.0709 29.7275C58.0709 33.5224 57.3235 37.2802 55.8712 40.7863C54.419 44.2923 52.2903 47.478 49.6069 50.1614C46.9235 52.8449 43.7378 54.9735 40.2318 56.4257C36.7257 57.878 32.9679 58.6254 29.173 58.6254C25.378 58.6254 21.6203 57.878 18.1142 56.4257C14.6081 54.9735 11.4225 52.8449 8.73904 50.1614C6.05562 47.478 3.92701 44.2923 2.47475 40.7863C1.02249 37.2802 0.275024 33.5224 0.275024 29.7275L29.173 29.7275H58.0709Z" fill="#867DEC"/>
<path d="M29.1729 17.6867C28.3745 17.6867 27.6089 18.0038 27.0444 18.5683C26.4798 19.1329 26.1627 19.8985 26.1627 20.6969V38.7581C26.1627 39.5565 26.4798 40.3221 27.0444 40.8866C27.6089 41.4512 28.3745 41.7683 29.1729 41.7683C29.9713 41.7683 30.7369 41.4512 31.3014 40.8866C31.866 40.3221 32.1831 39.5565 32.1831 38.7581V20.6969C32.1831 19.8985 31.866 19.1329 31.3014 18.5683C30.7369 18.0038 29.9713 17.6867 29.1729 17.6867ZM20.1423 29.7275C19.3439 29.7275 18.5783 30.0446 18.0137 30.6092C17.4492 31.1737 17.1321 31.9393 17.1321 32.7377V38.7581C17.1321 39.5565 17.4492 40.3221 18.0137 40.8866C18.5783 41.4512 19.3439 41.7683 20.1423 41.7683C20.9406 41.7683 21.7063 41.4512 22.2708 40.8866C22.8353 40.3221 23.1525 39.5565 23.1525 38.7581V32.7377C23.1525 31.9393 22.8353 31.1737 22.2708 30.6092C21.7063 30.0446 20.9406 29.7275 20.1423 29.7275ZM38.2035 23.7071C37.4052 23.7071 36.6395 24.0242 36.075 24.5888C35.5104 25.1533 35.1933 25.9189 35.1933 26.7173V38.7581C35.1933 39.5565 35.5104 40.3221 36.075 40.8866C36.6395 41.4512 37.4052 41.7683 38.2035 41.7683C39.0019 41.7683 39.7675 41.4512 40.332 40.8866C40.8966 40.3221 41.2137 39.5565 41.2137 38.7581V26.7173C41.2137 25.9189 40.8966 25.1533 40.332 24.5888C39.7675 24.0242 39.0019 23.7071 38.2035 23.7071Z" fill="#FFFDFE"/>
<path d="M12.1576 78.6255V66.3657H16.3C17.2618 66.3657 18.048 66.5393 18.6586 66.8865C19.2731 67.2297 19.7281 67.6947 20.0234 68.2813C20.3187 68.868 20.4664 69.5224 20.4664 70.2448C20.4664 70.9671 20.3187 71.6236 20.0234 72.2142C19.7321 72.8049 19.2811 73.2758 18.6705 73.627C18.0599 73.9742 17.2777 74.1478 16.3239 74.1478H13.3548V72.8308H16.2761C16.9345 72.8308 17.4633 72.7171 17.8624 72.4896C18.2615 72.2621 18.5508 71.9548 18.7304 71.5677C18.914 71.1766 19.0058 70.7356 19.0058 70.2448C19.0058 69.7539 18.914 69.3149 18.7304 68.9278C18.5508 68.5407 18.2595 68.2374 17.8564 68.0179C17.4533 67.7944 16.9186 67.6827 16.2521 67.6827H13.6421V78.6255H12.1576ZM25.9417 78.817C25.1116 78.817 24.3833 78.6195 23.7568 78.2244C23.1342 77.8293 22.6473 77.2766 22.2961 76.5662C21.9489 75.8558 21.7753 75.0258 21.7753 74.0759C21.7753 73.1182 21.9489 72.2821 22.2961 71.5677C22.6473 70.8534 23.1342 70.2987 23.7568 69.9036C24.3833 69.5085 25.1116 69.3109 25.9417 69.3109C26.7718 69.3109 27.4981 69.5085 28.1207 69.9036C28.7473 70.2987 29.2341 70.8534 29.5813 71.5677C29.9325 72.2821 30.1081 73.1182 30.1081 74.0759C30.1081 75.0258 29.9325 75.8558 29.5813 76.5662C29.2341 77.2766 28.7473 77.8293 28.1207 78.2244C27.4981 78.6195 26.7718 78.817 25.9417 78.817ZM25.9417 77.5479C26.5723 77.5479 27.0911 77.3863 27.4981 77.0631C27.9052 76.7398 28.2065 76.3148 28.402 75.788C28.5976 75.2612 28.6954 74.6905 28.6954 74.0759C28.6954 73.4614 28.5976 72.8887 28.402 72.3579C28.2065 71.8271 27.9052 71.3981 27.4981 71.0709C27.0911 70.7436 26.5723 70.58 25.9417 70.58C25.3112 70.58 24.7924 70.7436 24.3853 71.0709C23.9782 71.3981 23.6769 71.8271 23.4814 72.3579C23.2858 72.8887 23.1881 73.4614 23.1881 74.0759C23.1881 74.6905 23.2858 75.2612 23.4814 75.788C23.6769 76.3148 23.9782 76.7398 24.3853 77.0631C24.7924 77.3863 25.3112 77.5479 25.9417 77.5479ZM33.3162 66.3657V78.6255H31.9034V66.3657H33.3162ZM36.9552 66.3657V78.6255H35.5425V66.3657H36.9552ZM45.6945 71.4899L44.4254 71.8491C44.3456 71.6376 44.2279 71.432 44.0723 71.2325C43.9206 71.029 43.7131 70.8614 43.4497 70.7297C43.1863 70.598 42.8491 70.5321 42.438 70.5321C41.8753 70.5321 41.4064 70.6618 41.0313 70.9212C40.6601 71.1766 40.4745 71.5019 40.4745 71.897C40.4745 72.2482 40.6023 72.5255 40.8577 72.729C41.1131 72.9326 41.5122 73.1022 42.0549 73.2379L43.4198 73.5731C44.2419 73.7726 44.8545 74.0779 45.2575 74.489C45.6606 74.8961 45.8621 75.4208 45.8621 76.0634C45.8621 76.5901 45.7105 77.0611 45.4072 77.4761C45.1079 77.8912 44.6888 78.2184 44.1501 78.4578C43.6113 78.6973 42.9848 78.817 42.2704 78.817C41.3326 78.817 40.5564 78.6135 39.9418 78.2064C39.3272 77.7994 38.9381 77.2047 38.7745 76.4225L40.1154 76.0873C40.2431 76.5822 40.4845 76.9533 40.8397 77.2007C41.1989 77.4482 41.6678 77.5719 42.2465 77.5719C42.9049 77.5719 43.4277 77.4322 43.8148 77.1529C44.2059 76.8695 44.4015 76.5303 44.4015 76.1352C44.4015 75.8159 44.2898 75.5486 44.0663 75.333C43.8428 75.1136 43.4996 74.9499 43.0366 74.8422L41.5042 74.483C40.6621 74.2835 40.0435 73.9742 39.6485 73.5551C39.2574 73.1321 39.0618 72.6033 39.0618 71.9688C39.0618 71.45 39.2075 70.9911 39.4988 70.592C39.7941 70.1929 40.1952 69.8796 40.702 69.6521C41.2128 69.4247 41.7915 69.3109 42.438 69.3109C43.3479 69.3109 44.0623 69.5105 44.5811 69.9095C45.1039 70.3086 45.475 70.8354 45.6945 71.4899Z" fill="black"/>
</svg>
